**ABCDEFGHIJKLMNOPQRSTUVWXYZabcdefghijklmnopqrstuvwxyz**************************
**PARASOLID !"#$%&'()*+,-./:;<=>?@[\]^_`{|}~0123456789**************************
**PART1;
MC=x86;
MC_MODEL=x86 Family 6 Model 23 Stepping 6, GenuineIntel;
MC_ID=unknown;
OS=Windows_NT;
OS_RELEASE=unknown;
FRU=Parasolid Version 19.1, build 315,  1-13-2009;
APPL=SolidWorks 2009-2009077;
SITE=;
USER=unknown;
FORMAT=text;
GUISE=transmit;
KEY=Base_Plate_Jig;
FILE=Base_Plate_Jig.x_t;
DATE=Sat Sep 26 12:39:27 2009;
**PART2;
SCH=SCH_1901315_19008;
USFLD_SIZE=0;
**PART3;
**END_OF_HEADER*****************************************************************
T51 : TRANSMIT FILE created by modeller version 190131523 SCH_1901315_19008_1300
6186 0 12 27 CCCCCCCCCCCCCCCCCCCCCCCA16 index_map_offset0 0 1 dA9 index_map82 0
 A17 node_id_index_map82 0 A20 schema_embedding_map82 0 Z1 842 0 2 0 0 0 0 1e3 1
e-8 0 3 0 1 0 1 1 4 5 6 7 8 9 10 0 0 0 0 70 11 CI9 list_type0 0 1 uI10 notransmi
t0 0 1 lCCCDCCDI12 finger_index0 0 1 dI12 finger_block1012 0 CZ2 0 4 T1 0 0 1 20
 1 11 11 13 255 4 94 0 1 0 12 0 0 13 0 50 255 5 93 0 14 15 0 0 +.1397 -.1397 -.0
508 -1 0 0 0 0 1 31 255 6 237 0 16 17 0 0 +.0138176 -.08128 -.060325 0 0 -1 -1 0
 0 .003175 29 255 7 70 0 18 19 0 .1397 -.1397 -.060325 19 255 8 28 0 1 13 0 20 V
16 255 9 77 0 ?21 0 22 23 0 0 1 18 255 10 25 0 24 0 25 26 ?1 17 255 24 0 27 28 2
9 10 30 31 0 32 +18 25 22 0 29 10 33 34 ?1 29 26 27 0 10 34 35 .1397 -.1397 -.05
08 29 34 24 0 25 36 26 0 -.1397 -.0508 29 35 73 0 37 26 38 .1397 138777878078144
6e-32 -.060325 18 37 64 0 39 40 0 35 ?1 29 38 72 0 40 35 19 0 1387778780781446e-
32 -.060325 18 40 63 0 41 42 37 38 ?1 29 19 71 0 42 38 7 0 -.1397 -.060325 18 42
 62 0 43 18 40 19 ?1 17 43 0 44 45 46 42 47 48 0 49 +18 18 61 0 50 51 42 7 ?1 17
 50 0 52 32 49 18 53 54 0 55 +18 51 16 0 56 33 18 57 ?1 17 56 0 58 21 59 51 60 6
1 0 28 -18 33 19 0 60 25 51 36 ?1 29 57 18 0 51 0 36 .1397 1387778780781446e-32
 -.0508 29 36 21 0 33 57 34 0 1387778780781446e-32 -.0508 17 60 0 27 29 28 33 56
 61 0 59 +15 255 27 3 0 28 62 63 17 29 0 27 24 60 25 64 65 0 45 +17 28 0 27 60 2
4 51 66 67 0 68 +16 61 7 0 ?60 65 67 69 0 0 1 17 59 0 58 56 41 33 46 22 0 64 -15
 58 82 0 41 70 0 17 41 0 58 59 21 40 39 71 0 46 +17 46 0 44 43 64 40 59 22 0 47
 +16 22 76 0 ?46 9 72 73 0 0 1 17 64 0 44 46 45 33 29 65 0 0 -15 44 80 0 43 74 0
 17 45 0 44 64 43 25 49 72 0 30 -16 65 10 0 ?29 31 61 75 0 0 1 16 31 13 0 ?24 76
 65 77 0 0 1 30 255 75 11 0 65 69 77 0 +0 -.1397 -.0508 0 -1 0 30 69 8 0 61 78 7
5 0 +0 1387778780781446e-32 -.0508 -1 0 0 30 77 14 0 31 75 79 0 +0 -.1397 -.0508
 1 0 0 30 79 69 0 80 77 81 0 +.1397 -.1397 -.060325 0 1 0 16 80 57 0 ?82 71 83 7
9 0 0 1 30 81 68 0 71 79 84 0 +0 1387778780781446e-32 -.060325 -1 0 0 16 71 53 0
 ?41 48 80 81 0 0 1 30 84 67 0 48 81 85 0 +0 -.1397 -.060325 0 -1 0 16 48 49 0 ?
43 54 71 84 0 0 1 30 85 66 0 54 84 86 0 +0 -.1397 -.060325 1 0 0 16 54 45 0 ?50
 67 48 85 0 0 1 30 86 86 0 76 85 87 0 +.1397 -.1397 -.0508 0 0 -1 16 76 74 0 ?55
 72 31 86 0 0 1 30 87 87 0 72 86 73 0 +0 -.1397 -.0508 0 0 -1 16 72 75 0 ?49 22
 76 87 0 0 1 30 73 88 0 22 87 23 0 +0 1387778780781446e-32 -.0508 0 0 -1 30 23 8
9 0 9 73 17 0 +.1397 1387778780781446e-32 -.0508 0 0 -1 31 17 183 0 88 23 6 0 +.
0138176 -.05842 -.060325 0 0 -1 -1 0 0 .0031242 16 88 196 0 ?89 90 91 17 0 0 1 1
7 89 0 92 89 89 0 93 88 0 0 +16 90 150 0 ?94 83 88 95 0 0 1 16 91 197 0 ?96 88 1
6 97 0 0 1 17 96 0 98 96 96 0 99 91 0 0 +16 16 250 0 ?100 91 101 6 0 0 1 31 97 2
24 0 91 102 95 0 +.0138176 -.05842 -.0508 0 0 1 1 0 0 .0031242 31 102 278 0 101
 103 97 0 +.0138176 -.08128 -.0508 0 0 1 1 0 0 .003175 31 95 171 0 90 97 104 0 +
.03662305235204415 -.0366230523520441 -.0508 0 0 1 1 0 0 .00635 31 104 170 0 83
 95 78 0 +.03662305235204415 -.0366230523520441 -.060325 0 0 1 1 0 0 .00635 16 8
3 151 0 ?105 80 90 104 0 0 1 30 78 5 0 67 104 69 0 +.1397 -.1397 -.0508 0 1 0 16
 67 4 0 ?28 61 54 78 0 0 1 17 105 0 106 105 105 0 107 83 0 0 +15 106 137 0 105 1
2 108 17 107 0 109 107 107 0 105 83 0 0 -15 109 163 0 107 110 111 14 255 110 160
 112 ?113 114 109 4 115 -0 0 113 114 20 15 111 164 0 94 110 0 17 94 0 111 94 94
 0 116 90 0 0 +17 116 0 63 116 116 0 94 90 0 0 -15 63 143 0 116 62 117 14 62 298
 118 ?14 12 119 4 120 -0 0 14 12 20 15 117 188 0 99 62 121 17 99 0 117 99 99 0 9
6 91 0 0 -15 121 242 0 122 62 123 17 122 0 121 122 122 0 124 101 0 0 -15 123 297
 0 125 62 0 17 125 0 123 125 125 0 126 127 0 0 -17 126 0 128 126 126 0 125 127 0
 0 +16 127 302 0 ?126 129 130 131 0 0 1 16 129 303 0 ?132 101 127 103 0 0 1 16 1
30 344 0 ?133 127 134 135 0 0 1 31 131 323 0 127 135 103 0 +.03662305235204425 -
.103076947647956 -.0508 0 0 1 1 0 0 .00635 31 135 363 0 130 136 131 0 +.10307694
7647956 -.1030769476479556 -.060325 0 0 1 1 0 0 .00635 31 103 322 0 129 131 102
 0 +.03662305235204425 -.103076947647956 -.060325 0 0 1 1 0 0 .00635 31 136 364
 0 134 137 135 0 +.103076947647956 -.1030769476479556 -.0508 0 0 1 1 0 0 .00635
 16 134 343 0 ?138 130 139 136 0 0 1 31 137 403 0 139 140 136 0 +.10307694764795
54 -.03662305235204375 -.060325 0 0 1 1 0 0 .00635 16 139 384 0 ?141 134 142 137
 0 0 1 31 140 404 0 142 143 137 0 +.1030769476479554 -.03662305235204375 -.0508
 0 0 1 1 0 0 .00635 16 142 383 0 ?144 139 145 140 0 0 1 31 143 454 0 145 146 140
 0 +.05842 -.1258824 -.060325 0 0 -1 -1 0 0 .0031242 16 145 427 0 ?147 142 148 1
43 0 0 1 31 146 456 0 148 149 143 0 +.05842 -.1258824 -.0508 0 0 1 1 0 0 .003124
2 16 148 428 0 ?150 145 151 146 0 0 1 31 149 504 0 151 152 146 0 +.1258824 -.081
28 -.060325 0 0 -1 -1 0 0 .0031242 16 151 477 0 ?153 148 154 149 0 0 1 31 152 50
6 0 154 155 149 0 +.1258824 -.08128 -.0508 0 0 1 1 0 0 .0031242 16 154 478 0 ?15
6 151 157 152 0 0 1 31 155 554 0 157 158 152 0 +.08128 -.01381759999999986 -.060
325 0 0 -1 -1 0 0 .0031242 16 157 527 0 ?159 154 160 155 0 0 1 31 158 556 0 160
 161 155 0 +.08128 -.01381759999999986 -.0508 0 0 1 1 0 0 .0031242 16 160 528 0
 ?162 157 163 158 0 0 1 31 161 607 0 163 164 158 0 +.08128 -.1258824 -.060325 0
 0 -1 -1 0 0 .003175 16 163 580 0 ?165 160 166 161 0 0 1 31 164 609 0 166 167 16
1 0 +.08128 -.1258824 -.0508 0 0 1 1 0 0 .003175 16 166 581 0 ?168 163 169 164 0
 0 1 31 167 657 0 169 170 164 0 +.1258824 -.05842 -.060325 0 0 -1 -1 0 0 .003175
 16 169 630 0 ?171 166 172 167 0 0 1 31 170 659 0 172 173 167 0 +.1258824 -.0584
2 -.0508 0 0 1 1 0 0 .003175 16 172 631 0 ?174 169 175 170 0 0 1 31 173 707 0 17
5 176 170 0 +.05842 -.0138176 -.060325 0 0 -1 -1 0 0 .003175 16 175 680 0 ?177 1
72 178 173 0 0 1 31 176 709 0 178 0 173 0 +.05842 -.0138176 -.0508 0 0 1 1 0 0 .
003175 16 178 681 0 ?179 175 0 176 0 0 1 17 179 0 180 179 179 0 181 178 0 0 +15
 180 701 0 179 182 0 17 181 0 119 181 181 0 179 178 0 0 -15 119 666 0 181 62 183
 15 183 616 0 184 62 185 17 184 0 183 184 184 0 174 172 0 0 -15 185 566 0 186 62
 187 17 186 0 185 186 186 0 168 166 0 0 -15 187 513 0 188 62 189 17 188 0 187 18
8 188 0 162 160 0 0 -15 189 463 0 190 62 191 17 190 0 189 190 190 0 156 154 0 0
 -15 191 413 0 192 62 193 17 192 0 191 192 192 0 150 148 0 0 -15 193 376 0 194 6
2 195 17 194 0 193 194 194 0 144 142 0 0 -15 195 336 0 196 62 27 17 196 0 195 19
6 196 0 138 134 0 0 -17 138 0 197 138 138 0 196 134 0 0 +15 197 357 0 138 198 0
 14 198 353 199 ?200 201 202 4 203 -0 0 200 201 20 81 255 1 199 799 204 198 0 0
 205 206 207 14 200 393 206 ?208 198 209 4 210 -0 0 208 198 20 14 201 312 205 ?1
98 211 212 4 213 -0 0 198 211 20 15 202 356 0 214 198 197 51 255 203 362 0 198 2
10 213 0 +.103076947647956 -.1030769476479556 -.0508 0 0 1 .00635 1 0 0 13 20 29
 0 0 0 0 0 0 8 12 14 12 372 215 ?62 0 216 4 217 +0 0 62 0 20 81 1 215 789 204 12
 0 0 0 118 218 15 216 674 0 219 12 220 50 217 65 0 12 120 221 0 +.1397 138777878
0781446e-32 -.060325 0 0 -1 -1 0 0 50 120 2 0 62 115 217 0 +.1397 13877787807814
46e-32 -.0508 0 0 -1 -1 0 0 50 221 90 0 114 217 222 0 +0 -.1397 -.0508 0 1 0 0 0
 1 14 114 79 223 ?110 74 52 4 221 -0 0 110 74 20 50 222 91 0 74 221 15 0 +0 -.13
97 -.0508 1 0 0 0 0 -1 14 74 81 224 ?114 70 44 4 222 -0 0 114 70 20 50 15 92 0 7
0 222 5 0 +0 1387778780781446e-32 -.0508 0 -1 0 0 0 -1 14 70 83 225 ?74 14 58 4
 15 -0 0 74 14 20 81 1 225 792 204 70 0 0 226 224 227 14 14 85 226 ?70 62 228 4
 5 -0 0 70 62 20 81 1 226 791 204 14 0 0 118 225 229 15 228 84 0 82 14 0 17 82 0
 228 68 55 37 230 80 0 0 +17 68 0 228 66 82 51 21 9 0 0 -17 55 0 228 82 66 18 32
 76 0 230 +17 230 0 231 53 39 18 82 80 0 0 -15 231 44 0 230 12 106 17 53 0 231 4
7 230 42 50 54 0 0 -17 39 0 231 230 47 37 41 71 0 21 -17 47 0 231 39 53 40 43 48
 0 0 -17 21 0 58 41 56 37 68 9 0 82 +17 66 0 228 55 68 10 28 67 0 0 -17 32 0 52
 30 50 10 55 76 0 66 -15 52 78 0 50 114 0 17 30 0 52 49 32 25 24 31 0 0 -17 49 0
 52 50 30 42 45 72 0 53 +80 255 1 204 0 232 8001 0 0 0 0 3 5 0 0 0 FFFFTFTFFFFFF
F2 81 1 118 790 204 62 0 0 215 226 233 83 255 3 229 .717647058823529 1 .83137254
9019608 83 3 233 .717647058823529 1 .831372549019608 79 255 15 232 SDL/TYSA_COLO
UR81 1 224 793 204 74 0 0 225 223 234 83 3 227 .717647058823529 1 .8313725490196
08 81 1 223 794 204 114 0 0 224 112 235 83 3 234 .717647058823529 1 .83137254901
9608 81 1 112 795 204 110 0 0 223 236 237 83 3 235 .717647058823529 1 .831372549
019608 81 1 236 796 204 113 0 0 112 238 239 83 3 237 .717647058823529 1 .8313725
49019608 14 113 213 236 ?211 110 92 4 240 -0 0 211 110 20 81 1 238 797 204 211 0
 0 236 205 241 83 3 239 .717647058823529 1 .831372549019608 14 211 267 238 ?201
 113 242 4 243 -0 0 201 113 20 81 1 205 798 204 201 0 0 238 199 244 83 3 241 .71
7647058823529 1 .831372549019608 83 3 244 .717647058823529 1 .831372549019608 15
 242 270 0 100 211 245 51 243 276 0 211 213 240 0 +.0138176 -.08128 -.0508 0 0 1
 .003175 1 0 0 51 213 321 0 201 203 243 0 +.03662305235204425 -.103076947647956
 -.0508 0 0 1 .00635 1 0 0 51 240 222 0 113 243 115 0 +.0138176 -.05842 -.0508 0
 0 1 .0031242 1 0 0 51 115 169 0 110 240 120 0 +.03662305235204415 -.03662305235
20441 -.0508 0 0 1 .00635 1 0 0 17 100 0 242 100 100 0 246 16 0 0 +15 245 271 0
 124 211 0 17 124 0 245 124 124 0 122 101 0 0 +16 101 251 0 ?124 16 129 102 0 0
 1 17 246 0 247 246 246 0 100 16 0 0 -15 247 236 0 246 12 248 15 248 290 0 132 1
2 249 17 132 0 248 132 132 0 250 129 0 0 +15 249 330 0 133 12 251 17 133 0 249 1
33 133 0 214 130 0 0 +15 251 370 0 141 12 0 17 141 0 251 141 141 0 252 139 0 0 +
17 252 0 209 252 252 0 141 139 0 0 -15 209 396 0 252 200 253 15 253 397 0 144 20
0 0 17 144 0 253 144 144 0 194 142 0 0 +17 214 0 202 214 214 0 133 130 0 0 -17 2
50 0 212 250 250 0 132 129 0 0 -15 212 315 0 250 201 128 15 128 316 0 126 201 0
 15 92 216 0 89 113 98 15 98 217 0 96 113 0 17 219 0 216 219 219 0 177 175 0 0 -
15 220 624 0 254 12 255 17 254 0 220 254 254 0 171 169 0 0 -15 255 574 0 256 12
 257 17 256 0 255 256 256 0 165 163 0 0 -15 257 521 0 258 12 259 17 258 0 257 25
8 258 0 159 157 0 0 -15 259 471 0 260 12 261 17 260 0 259 260 260 0 153 151 0 0
 -15 261 421 0 262 12 231 17 262 0 261 262 262 0 147 145 0 0 -17 147 0 263 147 1
47 0 262 145 0 0 +15 263 447 0 147 208 264 14 208 444 265 ?266 200 263 4 267 -0
 0 266 200 20 15 264 448 0 150 208 0 17 150 0 264 150 150 0 192 148 0 0 +81 1 26
5 801 204 208 0 0 206 268 269 14 266 494 268 ?270 208 271 4 272 -0 0 270 208 20
 51 267 453 0 208 272 210 0 +.05842 -.1258824 -.0508 0 0 1 .0031242 1 0 0 51 272
 503 0 266 273 267 0 +.1258824 -.08128 -.0508 0 0 1 .0031242 1 0 0 51 210 402 0
 200 267 203 0 +.1030769476479554 -.03662305235204375 -.0508 0 0 1 .00635 1 0 0
 51 273 553 0 270 274 272 0 +.08128 -.01381759999999986 -.0508 0 0 1 .0031242 1
 0 0 14 270 544 275 ?276 266 277 4 273 -0 0 276 266 20 51 274 606 0 276 278 273
 0 +.08128 -.1258824 -.0508 0 0 1 .003175 1 0 0 14 276 597 279 ?280 270 281 4 27
4 -0 0 280 270 20 51 278 656 0 280 282 274 0 +.1258824 -.05842 -.0508 0 0 1 .003
175 1 0 0 14 280 647 283 ?182 276 284 4 278 -0 0 182 276 20 51 282 706 0 182 0 2
78 0 +.05842 -.0138176 -.0508 0 0 1 .003175 1 0 0 14 182 697 285 ?0 280 286 4 28
2 -0 0 0 280 20 81 1 285 806 204 182 0 0 283 0 287 15 286 700 0 177 182 180 17 1
77 0 286 177 177 0 219 175 0 0 +81 1 283 805 204 280 0 0 279 285 288 83 3 287 .7
17647058823529 1 .831372549019608 81 1 279 804 204 276 0 0 275 283 289 83 3 288
 .717647058823529 1 .831372549019608 81 1 275 803 204 270 0 0 268 279 290 83 3 2
89 .717647058823529 1 .831372549019608 81 1 268 802 204 266 0 0 265 275 291 83 3
 290 .717647058823529 1 .831372549019608 83 3 291 .717647058823529 1 .8313725490
19608 15 284 650 0 171 280 292 17 171 0 284 171 171 0 254 169 0 0 +15 292 651 0
 174 280 0 17 174 0 292 174 174 0 184 172 0 0 +15 281 600 0 165 276 293 17 165 0
 281 165 165 0 256 163 0 0 +15 293 601 0 168 276 0 17 168 0 293 168 168 0 186 16
6 0 0 +15 277 547 0 159 270 294 17 159 0 277 159 159 0 258 157 0 0 +15 294 548 0
 162 270 0 17 162 0 294 162 162 0 188 160 0 0 +15 271 497 0 153 266 295 17 153 0
 271 153 153 0 260 151 0 0 +15 295 498 0 156 266 0 17 156 0 295 156 156 0 190 15
4 0 0 +81 1 206 800 204 200 0 0 199 265 296 83 3 269 .717647058823529 1 .8313725
49019608 83 3 296 .717647058823529 1 .831372549019608 83 3 218 .717647058823529
 1 .831372549019608 83 3 207 .717647058823529 1 .831372549019608 15 108 182 0 93
 12 247 17 93 0 108 93 93 0 89 88 0 0 -19 13 95 0 1 0 8 4 S74 4 CI16 index_map_o
ffset0 0 1 dCCZ20 11 1 0 0 285 0 0 0 0 0 0 0 0 0 0 0 0 0 0 0 0 0 0 0 1 0 
