**ABCDEFGHIJKLMNOPQRSTUVWXYZabcdefghijklmnopqrstuvwxyz**************************
**PARASOLID !"#$%&'()*+,-./:;<=>?@[\]^_`{|}~0123456789**************************
**PART1;
MC=x86;
MC_MODEL=x86 Family 6 Model 23 Stepping 6, GenuineIntel;
MC_ID=unknown;
OS=Windows_NT;
OS_RELEASE=unknown;
FRU=Parasolid Version 19.1, build 315,  1-13-2009;
APPL=SolidWorks 2009-2009077;
SITE=;
USER=unknown;
FORMAT=text;
GUISE=transmit;
KEY=Bell_Crank;
FILE=Bell_Crank.x_t;
DATE=Sat Sep 12 00:22:16 2009;
**PART2;
SCH=SCH_1901315_19008;
USFLD_SIZE=0;
**PART3;
**END_OF_HEADER*****************************************************************
T51 : TRANSMIT FILE created by modeller version 190131523 SCH_1901315_19008_1300
6186 0 12 27 CCCCCCCCCCCCCCCCCCCCCCCA16 index_map_offset0 0 1 dA9 index_map82 0
 A17 node_id_index_map82 0 A20 schema_embedding_map82 0 Z1 1449 2 3 0 0 0 0 1e3
 1e-8 0 4 0 1 0 1 1 5 6 7 8 9 10 11 0 0 0 0 81 255 3 2 1315 12 1 0 0 0 0 13 14 1
5 70 11 CI9 list_type0 0 1 uI10 notransmit0 0 1 lCCCDCCDI12 finger_index0 0 1 dI
12 finger_block1012 0 CZ3 0 4 T1 0 0 2 20 1 16 16 13 255 5 134 0 1 0 17 0 0 18 0
 51 255 6 1221 0 19 20 0 0 +-.00476024539156454 .003175 -.009525 0 0 -1 .003175
 1 0 0 31 255 7 1023 0 10 21 0 0 --.0187418463273585 .003175 -.009525 0 0 1 -1 0
 0 .003175 29 255 8 929 0 11 22 0 -.0428065279043431 .003175 -.009525 19 255 9 4
0 0 1 18 0 23 V16 255 10 994 0 ?24 0 25 7 0 0 1 18 255 11 927 0 26 0 27 8 ?1 17
 255 26 0 28 29 30 11 31 32 0 33 +18 27 924 0 34 11 35 22 ?1 17 34 0 36 33 37 27
 38 39 0 29 +18 35 921 0 40 27 41 42 ?1 29 22 926 0 27 42 8 -.0428065279043431 .
00630487193946542 -.009525 29 42 923 0 35 43 22 -.0418765919346104 .008549935969
73271 -.009525 29 43 920 0 41 44 42 -.027960601531864 .02246592637247915 -.00952
5 18 41 918 0 45 35 46 43 ?1 29 44 917 0 46 47 43 -.0257155375015967 .0233958623
422119 -.009525 18 46 915 0 48 41 49 44 ?1 29 47 914 0 49 50 44 -.02215982393475
045 .0233958623422119 -.009525 18 49 912 0 51 46 52 47 ?1 29 50 901 0 52 53 47 -
.001585245391564545 .00610720798118103 -.009525 18 52 899 0 54 49 55 50 ?1 29 53
 898 0 55 56 50 -.001585245391564545 .003175 -.009525 18 55 896 0 57 52 58 53 ?1
 29 56 859 0 58 59 53 -.0257155375015967 .0233958623422119 -.012065 18 58 857 0
 60 55 61 56 ?1 29 59 856 0 61 62 56 -.02215982393475045 .0233958623422119 -.012
065 18 61 854 0 63 58 64 59 ?1 29 62 853 0 64 65 59 -.0418765919346104 .00854993
596973271 -.012065 18 64 851 0 66 61 67 62 ?1 29 65 850 0 67 68 62 -.02796060153
1864 .02246592637247915 -.012065 18 67 848 0 69 64 70 65 ?1 29 68 847 0 70 71 65
 -.0428065279043431 .003175 -.012065 18 70 845 0 72 67 73 68 ?1 29 71 844 0 73 7
4 68 -.0428065279043431 .00630487193946542 -.012065 18 73 842 0 75 70 76 71 ?1 2
9 74 841 0 76 77 71 -.001585245391564545 .00610720798118103 -.012065 18 76 839 0
 78 73 79 74 ?1 29 77 838 0 79 80 74 -.001585245391564545 .003175 -.012065 18 79
 836 0 81 76 82 77 ?1 29 80 825 0 82 83 77 -.0201596993129275 .02268665359395595
 -.009525 18 82 823 0 84 79 85 80 ?1 29 83 822 0 85 86 80 -.00276012076974156 .0
0857299923292507 -.009525 18 85 820 0 87 82 88 83 ?1 29 86 819 0 88 89 83 -.0201
596993129275 .02268665359395595 -.012065 18 88 817 0 90 85 91 86 ?1 29 89 816 0
 91 92 86 -.00276012076974156 .00857299923292507 -.012065 18 91 814 0 93 88 94 8
9 ?1 29 92 805 0 94 95 89 -.0295181536726415 0 -.009525 18 94 803 0 96 91 97 92
 ?1 29 95 794 0 97 98 92 -.0187418463273585 0 -.009525 18 97 792 0 99 94 100 95
 ?1 29 98 777 0 100 101 95 -.00476024539156454 0 -.012065 18 100 775 0 102 97 10
3 98 ?1 29 101 774 0 103 104 98 -.0396315279043431 0 -.012065 18 103 772 0 105 1
00 106 101 ?1 29 104 771 0 106 107 101 -.0396315279043431 0 -.009525 18 106 769
 0 108 103 109 104 ?1 29 107 768 0 109 110 104 -.00476024539156454 0 -.009525 18
 109 766 0 111 106 112 107 ?1 29 110 755 0 112 113 107 -.0295181536726415 0 -.00
37084 18 112 753 0 114 109 115 110 ?1 29 113 752 0 115 116 110 -.018741846327358
5 0 -.0037084 18 115 750 0 117 112 118 113 ?1 29 116 737 0 118 119 113 -.0325115
7237966455 .002116666666666665 -.009525 18 118 735 0 120 115 121 116 ?1 29 119 7
34 0 121 122 116 -.01574842762033545 .002116666666666665 -.009525 18 121 732 0 1
23 118 124 119 ?1 29 122 731 0 124 125 119 -.03251157237966455 .0021166666666666
65 -.0037084 18 124 729 0 126 121 127 122 ?1 29 125 728 0 127 0 122 -.0157484276
2033545 .002116666666666665 -.0037084 18 127 726 0 128 124 0 125 ?1 17 128 0 129
 130 131 127 117 132 0 133 +15 255 129 294 0 130 134 0 17 130 0 129 114 128 124
 133 135 0 0 +17 131 0 129 128 114 115 136 137 0 0 -17 117 0 138 139 140 115 128
 132 0 141 -16 132 756 0 ?128 142 143 144 0 0 1 17 133 0 145 123 146 127 130 135
 0 140 -15 145 301 0 147 148 0 17 123 0 145 147 133 121 140 149 0 150 +17 146 0
 145 133 147 124 151 143 0 130 +16 135 727 0 ?130 152 153 154 0 0 1 17 140 0 138
 117 155 127 123 149 0 0 -15 138 1084 0 155 156 0 17 155 0 138 140 139 121 24 10
 0 0 -16 149 738 0 ?123 143 137 157 0 0 1 16 143 744 0 ?146 132 149 158 0 0 1 16
 137 751 0 ?136 149 159 160 0 0 1 30 255 157 740 0 149 161 158 0 --.015748427620
33545 .002116666666666665 -.012065 0 0 1 31 161 666 0 162 163 157 0 +-.00550926
 .00508 -.012065 0 0 1 -1 0 0 889e-6 30 158 746 0 143 157 144 0 +-.0325115723796
6455 .002116666666666665 -.012065 0 0 1 31 144 758 0 132 158 164 0 +-.0187418463
273585 .003175 -.0037084 0 0 1 -1 0 0 .003175 31 164 763 0 142 144 165 0 +-.0295
181536726415 .003175 -.0037084 0 0 1 -1 0 0 .003175 16 142 761 0 ?114 166 132 16
4 0 0 1 30 165 780 0 166 164 167 0 --.00476024539156454 0 -.009525 0 0 -1 16 166
 778 0 ?111 168 142 165 0 0 1 30 167 787 0 168 165 169 0 +-.0396315279043431 0 -
.009525 0 0 -1 16 168 785 0 ?170 171 166 167 0 0 1 30 169 798 0 171 167 172 0 --
.0187418463273585 0 -.0037084 0 0 -1 16 171 796 0 ?141 173 168 169 0 0 1 30 172
 809 0 173 169 174 0 +-.0295181536726415 0 -.009525 0 0 -1 16 173 807 0 ?175 176
 171 172 0 0 1 30 174 828 0 176 172 177 0 --.0201596993129275 .02268665359395595
 -.009525 0 0 -1 16 176 826 0 ?84 178 173 174 0 0 1 30 177 833 0 178 174 179 0 +
-.00276012076974156 .00857299923292507 -.009525 0 0 -1 16 178 831 0 ?180 181 176
 177 0 0 1 31 179 862 0 181 177 182 0 --.00476024539156454 .003175 -.012065 0 0
 1 -1 0 0 .003175 16 181 860 0 ?102 183 178 179 0 0 1 31 182 868 0 183 179 184 0
 --.0396315279043431 .003175 -.012065 0 0 1 -1 0 0 .003175 16 183 866 0 ?72 185
 181 182 0 0 1 31 184 874 0 185 182 186 0 --.0396315279043431 .00630487193946542
 -.012065 0 0 1 -1 0 0 .003175 16 185 872 0 ?66 187 183 184 0 0 1 31 186 880 0 1
87 184 188 0 --.0257155375015967 .0202208623422119 -.012065 0 0 1 -1 0 0 .003175
 16 187 878 0 ?60 189 185 186 0 0 1 31 188 886 0 189 186 190 0 --.02215982393475
045 .0202208623422119 -.012065 0 0 1 -1 0 0 .003175 16 189 884 0 ?90 191 187 188
 0 0 1 31 190 892 0 191 188 192 0 --.00476024539156454 .00610720798118103 -.0120
65 0 0 1 -1 0 0 .003175 16 191 890 0 ?78 193 189 190 0 0 1 30 192 904 0 193 190
 194 0 +-.001585245391564545 .003175 -.009525 0 0 -1 16 193 902 0 ?195 196 191 1
92 0 0 1 30 194 909 0 196 192 197 0 --.001585245391564545 .00610720798118103 -.0
09525 0 0 -1 16 196 907 0 ?54 198 193 194 0 0 1 31 197 932 0 198 194 199 0 +-.00
476024539156454 .003175 -.009525 0 0 1 -1 0 0 .003175 16 198 930 0 ?57 200 196 1
97 0 0 1 31 199 937 0 200 197 201 0 +-.0396315279043431 .003175 -.009525 0 0 1 -
1 0 0 .003175 16 200 935 0 ?108 39 198 199 0 0 1 31 201 942 0 39 199 202 0 +-.03
96315279043431 .00630487193946542 -.009525 0 0 1 -1 0 0 .003175 16 39 940 0 ?34
 203 200 201 0 0 1 31 202 947 0 203 201 204 0 +-.0257155375015967 .0202208623422
119 -.009525 0 0 1 -1 0 0 .003175 16 203 945 0 ?45 205 39 202 0 0 1 31 204 952 0
 205 202 206 0 +-.02215982393475045 .0202208623422119 -.009525 0 0 1 -1 0 0 .003
175 16 205 950 0 ?51 207 203 204 0 0 1 31 206 957 0 207 204 208 0 +-.00476024539
156454 .00610720798118103 -.009525 0 0 1 -1 0 0 .003175 16 207 955 0 ?87 209 205
 206 0 0 1 30 208 962 0 209 206 210 0 --.0257155375015967 .0233958623422119 -.00
9525 0 0 -1 16 209 960 0 ?48 211 207 208 0 0 1 30 210 967 0 211 208 212 0 +-.022
15982393475045 .0233958623422119 -.009525 0 0 -1 16 211 965 0 ?213 214 209 210 0
 0 1 30 212 972 0 214 210 215 0 --.0418765919346104 .00854993596973271 -.009525
 0 0 -1 16 214 970 0 ?40 216 211 212 0 0 1 30 215 977 0 216 212 217 0 +-.0279606
01531864 .02246592637247915 -.009525 0 0 -1 16 216 975 0 ?218 32 214 215 0 0 1 3
0 217 982 0 32 215 219 0 --.0428065279043431 .003175 -.009525 0 0 -1 16 32 980 0
 ?26 220 216 217 0 0 1 30 219 987 0 220 217 21 0 +-.0428065279043431 .0063048719
3946542 -.009525 0 0 -1 16 220 985 0 ?221 25 32 219 0 0 1 31 21 1022 0 25 219 7
 0 --.0295181536726415 .003175 -.009525 0 0 1 -1 0 0 .003175 16 25 990 0 ?120 10
 220 21 0 0 1 17 120 0 36 150 96 118 222 25 0 147 +15 36 204 0 223 224 0 17 150
 0 36 24 120 121 147 152 0 155 -17 96 0 36 120 108 94 225 226 0 175 +17 222 0 22
7 228 151 94 120 25 0 0 -17 147 0 145 146 123 118 150 152 0 151 +16 152 733 0 ?1
47 229 135 230 0 0 1 17 151 0 227 222 126 118 146 143 0 0 -15 227 1063 0 222 231
 0 17 126 0 227 151 228 124 114 142 0 146 -17 228 0 227 126 222 112 175 173 0 0
 -17 114 0 129 131 130 112 126 142 0 136 +17 136 0 232 175 141 112 131 137 0 228
 +15 232 118 0 136 233 0 17 175 0 232 225 136 94 228 173 0 222 +17 141 0 232 136
 99 115 139 171 0 131 +17 99 0 232 141 111 97 234 235 0 24 -17 139 0 138 155 117
 97 141 171 0 0 -17 111 0 232 99 236 109 237 166 0 234 +17 234 0 36 57 24 109 99
 235 0 238 +16 235 201 0 ?234 226 239 240 226 226 1 17 24 0 36 234 150 97 155 10
 0 139 +16 226 770 0 ?96 241 235 240 235 235 1 16 239 925 0 ?33 235 242 243 0 0
 1 30 240 8 0 226 243 244 0 +-.0428065279043431 0 -.009525 1 0 0 30 243 5 0 239
 230 240 0 +-.0428065279043431 .00762 -.009525 0 -1 0 30 244 11 0 241 240 245 0
 +-.001585245391564545 0 -.009525 0 1 0 16 241 897 0 ?223 246 226 244 0 0 1 30 2
45 14 0 246 244 247 0 +-.001585245391564545 .00762 -.009525 -.776627165903636 .6
29960510810389 0 16 246 821 0 ?248 249 241 245 0 0 1 30 247 17 0 249 245 250 0 +
-.0270306655621313 .0233958623422119 -.009525 -1 -1446412799658314e-31 0 16 249
 913 0 ?251 159 246 247 0 0 1 30 250 20 0 159 247 252 0 +-.0270306655621313 .023
3958623422119 -.009525 -.707106781186546 -.707106781186549 0 16 159 919 0 ?37 13
7 249 250 0 0 1 30 252 97 0 229 250 253 0 +-.0428065279043431 .00762 -.012065 0
 -1 0 16 229 843 0 ?30 254 152 252 0 0 1 30 253 96 0 254 252 255 0 +-.0428065279
043431 0 -.012065 1 0 0 16 254 773 0 ?236 256 229 253 0 0 1 30 255 95 0 256 253
 257 0 +-.001585245391564545 0 -.012065 0 1 0 16 256 837 0 ?258 259 254 255 0 0
 1 30 257 94 0 259 255 260 0 +-.001585245391564545 .00762 -.012065 -.77662716590
3636 .629960510810389 0 16 259 815 0 ?261 262 256 257 0 0 1 30 260 93 0 262 257
 263 0 +-.0270306655621313 .0233958623422119 -.012065 -1 -1446412799658314e-31 0
 16 262 855 0 ?264 242 259 260 0 0 1 30 263 92 0 242 260 160 0 +-.02703066556213
13 .0233958623422119 -.012065 -.707106781186546 -.707106781186549 0 16 242 849 0
 ?265 239 262 263 0 0 1 30 160 295 0 137 263 266 0 +-.02413 0 -.0037084 -1 0 0 3
1 266 426 0 153 160 267 0 --.02413 .00508 -.00597916 0 0 1 -1 0 0 .00238125 16 1
53 443 0 ?268 135 269 266 0 0 1 31 267 500 0 270 266 271 0 --.02413 .00508 -.009
79424 0 0 -1 1 0 0 .00238125 16 270 511 0 ?272 273 274 267 0 0 1 31 271 557 0 27
5 267 163 0 +-.03891026 .00508 -.012065 0 0 1 -1 0 0 889e-6 16 275 572 0 ?276 27
7 278 271 0 0 1 31 163 607 0 279 271 161 0 +-.02413 .01986026 -.012065 0 0 1 -1
 0 0 889e-6 16 279 622 0 ?280 278 281 163 0 0 1 17 280 0 282 280 280 0 283 279 0
 0 +16 278 573 0 ?284 275 279 285 0 0 1 16 281 623 0 ?286 279 162 287 0 0 1 17 2
86 0 288 286 286 0 289 281 0 0 +16 162 679 0 ?290 281 291 161 0 0 1 31 287 651 0
 281 292 285 0 +-.02413 .01986026 -.009525 0 0 1 -1 0 0 889e-6 31 292 708 0 291
 0 287 0 +-.00550926 .00508 -.009525 0 0 1 -1 0 0 889e-6 31 285 601 0 278 287 29
3 0 +-.03891026 .00508 -.009525 0 0 1 -1 0 0 889e-6 31 293 538 0 274 285 294 0 +
-.02413 .00508 -.00979424 0 0 -1 1 0 0 .002987300096 16 274 508 0 ?295 270 277 2
93 0 0 1 31 294 537 0 277 293 296 0 +-.02413 .00508 -.012065 0 0 -1 1 0 0 .00298
7300096 16 277 504 0 ?297 274 275 294 0 0 1 31 296 470 0 269 294 298 0 +-.02413
 .00508 -.00597916 0 0 1 -1 0 0 .002987300096 16 269 440 0 ?299 153 273 296 0 0
 1 31 298 469 0 273 296 154 0 +-.02413 .00508 -.0037084 0 0 1 -1 0 0 .0029873000
96 16 273 436 0 ?300 269 270 298 0 0 1 31 154 261 0 135 298 230 0 +-.02413 .0050
8 -.0037084 0 0 1 -1 0 0 .00889 31 230 259 0 152 154 243 0 +-.02413 .00508 -.009
525 0 0 1 -1 0 0 .00889 17 300 0 301 300 300 0 302 273 0 0 +15 301 456 0 300 303
 0 17 302 0 304 302 302 0 300 273 0 0 -15 304 431 0 302 134 129 14 255 134 248 3
05 ?306 148 304 5 307 +0 0 306 148 23 81 1 305 1380 308 134 0 0 309 310 311 14 3
06 444 310 ?303 134 312 5 313 +0 0 303 134 23 14 148 236 309 ?134 314 145 5 315
 +0 0 134 314 23 50 255 307 255 0 134 316 315 0 +-.02413 .00508 -.0037084 0 0 1
 -1 0 0 13 23 41 0 0 0 0 0 0 9 17 14 17 501 317 ?318 0 319 5 316 -0 0 318 0 23 8
1 1 317 1370 308 17 0 0 0 320 321 14 318 121 320 ?233 17 28 5 322 -0 0 233 17 23
 15 319 425 0 323 17 324 51 316 411 0 17 325 307 0 +-.02413 .00508 -.012065 0 0
 1 .00238125 -1 0 0 51 325 465 0 303 313 316 0 +-.02413 .00508 -.00597916 0 0 1
 .002987300096 -1 0 0 14 303 452 326 ?327 306 328 5 325 -0 0 327 306 23 50 313 4
67 0 306 329 325 0 +-.02413 .00508 -.00597916 0 0 1 -1 0 0 51 329 533 0 330 331
 313 0 +-.02413 .00508 -.00979424 0 0 -1 .002987300096 1 0 0 14 330 520 332 ?333
 327 334 5 329 -0 0 333 327 23 50 331 535 0 327 335 329 0 +-.02413 .00508 -.0097
9424 0 0 -1 1 0 0 14 327 512 336 ?330 303 337 5 331 +0 0 330 303 23 51 335 599 0
 333 338 331 0 +-.03891026 .00508 -.009525 0 0 1 889e-6 -1 0 0 14 333 576 339 ?3
40 330 341 5 335 -0 0 340 330 23 51 338 649 0 340 342 335 0 +-.02413 .01986026 -
.009525 0 0 1 889e-6 -1 0 0 14 340 626 343 ?344 333 288 5 338 -0 0 344 333 23 51
 342 706 0 344 0 338 0 +-.00550926 .00508 -.009525 0 0 1 889e-6 -1 0 0 14 344 68
3 345 ?231 340 346 5 342 -0 0 231 340 23 81 1 345 1387 308 344 0 0 343 347 348 1
4 231 1062 347 ?156 344 227 5 349 +0 0 156 344 23 15 346 686 0 350 344 351 17 35
0 0 346 350 350 0 352 291 0 0 +15 351 687 0 353 344 0 17 353 0 351 353 353 0 290
 162 0 0 -17 290 0 354 290 290 0 353 162 0 0 +15 354 664 0 290 314 282 14 314 59
 355 ?148 224 354 5 356 -0 0 148 224 23 15 282 605 0 280 314 357 15 357 555 0 27
6 314 358 17 276 0 357 276 276 0 359 275 0 0 +15 358 491 0 360 314 361 17 360 0
 358 360 360 0 297 277 0 0 -15 361 60 0 362 314 0 17 362 0 361 78 90 91 261 259
 0 0 -17 78 0 361 363 362 76 93 191 0 258 +17 90 0 361 362 364 88 63 189 0 261 +
17 261 0 365 84 180 88 362 259 0 366 +15 365 114 0 367 368 0 17 84 0 365 367 261
 82 366 176 0 248 +17 180 0 365 261 367 91 369 178 0 362 +17 366 0 370 63 371 88
 84 176 0 0 -15 370 1126 0 371 372 0 17 63 0 370 373 366 61 90 189 0 213 -17 371
 0 370 366 373 82 51 205 0 0 -17 373 0 370 371 63 49 213 211 0 0 -17 51 0 36 251
 248 49 371 205 0 374 +17 251 0 36 45 51 46 374 249 0 375 +17 248 0 36 51 87 82
 367 246 0 371 +17 374 0 376 213 48 49 251 249 0 373 -15 376 112 0 374 377 0 17
 213 0 376 264 374 61 373 211 0 364 +17 48 0 376 374 264 46 378 209 0 251 +17 26
4 0 376 48 213 58 364 262 0 378 +17 378 0 379 69 375 58 48 209 0 0 -15 379 1147
 0 375 380 0 17 69 0 379 381 378 67 60 187 0 218 -17 375 0 379 378 381 46 45 203
 0 0 -17 381 0 379 375 69 41 218 216 0 0 -17 45 0 36 37 251 41 375 203 0 382 +17
 37 0 36 34 45 35 382 159 0 38 +17 382 0 383 218 40 41 37 159 0 381 -15 383 110
 0 382 384 0 17 218 0 383 265 382 67 381 216 0 385 +17 40 0 383 382 265 35 386 2
14 0 37 +17 265 0 383 40 218 64 385 242 0 386 +17 386 0 387 75 38 64 40 214 0 0
 -15 387 1168 0 38 388 0 17 75 0 387 389 386 73 66 185 0 221 -17 38 0 387 386 38
9 35 34 39 0 0 -17 389 0 387 38 75 27 221 220 0 0 -17 221 0 28 30 29 73 389 220
 0 390 +15 28 120 0 29 318 0 17 30 0 28 26 221 70 390 229 0 31 +17 29 0 28 221 2
6 27 33 239 0 389 -17 390 0 361 66 72 73 30 229 0 0 -17 66 0 361 385 390 64 75 1
85 0 265 +17 72 0 361 390 391 70 105 183 0 30 +17 391 0 361 72 102 103 236 254 0
 0 -17 105 0 392 393 31 103 72 183 0 170 -15 392 1189 0 394 395 0 17 393 0 392 3
94 105 106 170 168 0 0 -17 31 0 392 105 394 70 26 32 0 0 -17 170 0 232 236 225 1
03 393 168 0 391 +17 236 0 232 111 170 100 391 254 0 237 +17 225 0 232 170 175 1
06 96 226 0 393 -17 237 0 396 81 238 100 111 166 0 0 -15 396 1210 0 238 19 0 17
 81 0 396 397 237 79 102 181 0 195 -17 238 0 396 237 397 109 57 198 0 0 -17 397
 0 396 238 81 55 195 193 0 0 -17 57 0 36 223 234 55 238 198 0 398 +17 223 0 36 8
7 57 52 398 241 0 399 +17 398 0 400 195 54 55 223 241 0 397 -15 400 116 0 258 40
1 0 17 195 0 400 258 398 79 397 193 0 363 +17 54 0 400 398 258 52 402 196 0 223
 +17 258 0 400 54 195 76 363 256 0 402 +17 402 0 403 93 399 76 54 196 0 0 -15 40
3 1105 0 399 404 0 17 93 0 403 369 402 91 78 191 0 180 -17 399 0 403 402 369 52
 87 207 0 0 -17 369 0 403 399 93 85 180 178 0 0 -17 87 0 36 248 223 85 399 207 0
 367 +17 367 0 365 180 84 85 248 246 0 369 -14 404 1104 405 ?372 156 403 5 406 +
0 0 372 156 23 81 1 405 1390 308 404 0 0 407 408 409 14 372 1125 408 ?380 404 37
0 5 410 +0 0 380 404 23 14 156 1083 407 ?404 231 138 5 411 +0 0 404 231 23 51 40
6 1116 0 404 411 410 0 +-.00476024539156454 .00610720798118103 -.009525 0 0 -1 .
003175 1 0 0 51 411 1095 0 156 349 406 0 +-.0187418463273585 .003175 -.012065 0
 0 1 .003175 -1 0 0 51 410 1137 0 372 406 412 0 +-.02215982393475045 .0202208623
422119 -.009525 0 0 -1 .003175 1 0 0 51 412 1158 0 380 410 413 0 +-.025715537501
5967 .0202208623422119 -.009525 0 0 -1 .003175 1 0 0 14 380 1146 414 ?388 372 37
9 5 412 +0 0 388 372 23 51 413 1179 0 388 412 20 0 +-.0396315279043431 .00630487
193946542 -.009525 0 0 -1 .003175 1 0 0 14 388 1167 415 ?395 380 387 5 413 +0 0
 395 380 23 51 20 1200 0 395 413 6 0 +-.0396315279043431 .003175 -.009525 0 0 -1
 .003175 1 0 0 14 395 1188 416 ?19 388 392 5 20 +0 0 19 388 23 81 1 416 1394 308
 395 0 0 415 417 418 14 19 1209 417 ?0 395 396 5 6 +0 0 0 395 23 81 1 417 1395 3
08 19 0 0 416 0 419 80 255 1 308 0 420 8001 0 0 0 0 3 5 0 0 0 FFFFTFTFFFFFFF2 83
 255 3 419 1 0 1 79 255 15 420 SDL/TYSA_COLOUR81 1 415 1393 308 388 0 0 414 416
 421 83 3 418 1 0 1 81 1 414 1392 308 380 0 0 408 415 422 83 3 421 1 0 1 81 1 40
8 1391 308 372 0 0 405 414 423 83 3 422 1 0 1 83 3 423 1 0 1 51 349 1074 0 231 3
22 411 0 +-.0295181536726415 .003175 -.012065 0 0 1 .003175 -1 0 0 50 322 133 0
 318 424 349 0 +-.0428065279043431 .00762 -.009525 1 0 0 0 0 1 50 424 132 0 233
 425 322 0 +-.0428065279043431 0 -.009525 0 1 0 0 0 -1 14 233 119 426 ?401 318 2
32 5 424 -0 0 401 318 23 50 425 131 0 401 427 424 0 +-.001585245391564545 0 -.00
9525 -1 0 0 0 0 -1 14 401 117 428 ?368 233 400 5 425 -0 0 368 233 23 50 427 130
 0 368 429 425 0 +-.001585245391564545 .00762 -.009525 -.629960510810389 -.77662
7165903636 0 .776627165903636 -.629960510810389 0 14 368 115 430 ?377 401 365 5
 427 -0 0 377 401 23 50 429 129 0 377 431 427 0 +-.0270306655621313 .02339586234
22119 -.009525 1446412799658314e-31 -1 0 1 1446412799658314e-31 0 14 377 113 432
 ?384 368 376 5 429 -0 0 384 368 23 50 431 128 0 384 356 429 0 +-.02703066556213
13 .0233958623422119 -.009525 .707106781186549 -.707106781186546 0 .707106781186
546 .707106781186549 0 14 384 111 433 ?224 377 383 5 431 -0 0 224 377 23 50 356
 91 0 314 434 431 0 +-.0428065279043431 0 -.012065 0 0 1 -1 0 0 50 434 2 0 224 3
15 356 0 +-.0428065279043431 0 -.009525 0 0 1 -1 0 0 14 224 1 435 ?314 384 436 5
 434 +0 0 314 384 23 51 315 253 0 148 307 434 0 +-.02413 .00508 -.012065 0 0 1 .
00889 -1 0 0 81 1 435 1377 308 224 0 0 433 355 437 15 436 673 0 352 224 438 17 3
52 0 436 352 352 0 350 291 0 0 -15 438 615 0 289 224 439 17 289 0 438 289 289 0
 286 281 0 0 -15 439 565 0 440 224 36 17 440 0 439 440 440 0 284 278 0 0 -17 284
 0 341 284 284 0 440 278 0 0 +15 341 579 0 284 333 441 15 441 580 0 359 333 0 17
 359 0 441 359 359 0 276 275 0 0 -16 291 680 0 ?350 162 0 292 0 0 1 81 1 433 137
6 308 384 0 0 432 435 442 81 1 355 1378 308 314 0 0 435 309 443 83 3 437 1 0 1 8
1 1 309 1379 308 148 0 0 355 305 444 83 3 443 1 0 1 83 3 444 1 0 1 81 1 432 1375
 308 377 0 0 430 433 445 83 3 442 1 0 1 81 1 430 1374 308 368 0 0 428 432 446 83
 3 445 1 0 1 81 1 428 1373 308 401 0 0 426 430 447 83 3 446 1 0 1 81 1 426 1372
 308 233 0 0 320 428 448 83 3 447 1 0 1 81 1 320 1371 308 318 0 0 317 426 449 83
 3 448 1 0 1 83 3 449 1 0 1 81 1 407 1389 308 156 0 0 347 405 450 81 1 347 1388
 308 231 0 0 345 407 451 83 3 450 1 0 1 83 3 451 1 0 1 83 3 409 1 0 1 17 363 0 3
61 102 78 79 258 256 0 0 -17 102 0 361 391 363 100 81 181 0 236 +17 394 0 392 31
 393 11 108 200 0 0 -17 108 0 36 96 33 106 394 200 0 225 +17 33 0 36 108 34 11 2
9 239 0 394 +17 385 0 361 60 66 67 265 242 0 0 -17 60 0 361 364 385 58 69 187 0
 264 +17 364 0 361 90 60 61 264 262 0 0 -17 297 0 452 297 297 0 360 277 0 0 +15
 452 524 0 297 330 0 81 1 343 1386 308 340 0 0 339 345 453 83 3 348 1 0 1 81 1 3
39 1385 308 333 0 0 332 343 454 83 3 453 1 0 1 81 1 332 1384 308 330 0 0 336 339
 455 83 3 454 1 0 1 81 1 336 1383 308 327 0 0 326 332 456 83 3 455 1 0 1 81 1 32
6 1382 308 303 0 0 310 336 457 83 3 456 1 0 1 81 1 310 1381 308 306 0 0 305 326
 458 83 3 457 1 0 1 83 3 458 1 0 1 15 288 629 0 286 340 459 15 459 630 0 283 340
 0 17 283 0 459 283 283 0 280 279 0 0 -15 337 514 0 295 327 460 17 295 0 337 295
 295 0 461 274 0 0 +15 460 515 0 272 327 0 17 272 0 460 272 272 0 462 270 0 0 +1
7 462 0 324 462 462 0 272 270 0 0 -15 324 499 0 462 17 0 17 461 0 334 461 461 0
 295 274 0 0 -15 334 523 0 461 330 452 15 328 455 0 463 303 301 17 463 0 328 463
 463 0 299 269 0 0 -17 299 0 312 299 299 0 463 269 0 0 +15 312 446 0 299 306 464
 15 464 447 0 268 306 0 17 268 0 464 268 268 0 323 153 0 0 +17 323 0 319 323 323
 0 268 153 0 0 -83 3 321 1 0 1 83 3 311 1 0 1 19 18 135 0 1 0 9 5 S74 4 CI16 ind
ex_map_offset0 0 1 dCCZ20 16 2 0 0 2 417 0 0 0 0 0 0 0 0 0 0 0 0 0 0 0 0 0 0 80
 3 12 465 466 9000 0 1 0 0 1 1 1 1 0 FFTFFFFFFFFFFF1 1 1 82 255 1 13 269949 82 1
 14 1856 82 7 15 365238 298674 364954 365199 365809 365851 366160 79 13 466 Temp
AxisFaces1 0 
