**ABCDEFGHIJKLMNOPQRSTUVWXYZabcdefghijklmnopqrstuvwxyz**************************
**PARASOLID !"#$%&'()*+,-./:;<=>?@[\]^_`{|}~0123456789**************************
**PART1;
MC=x86;
MC_MODEL=x86 Family 6 Model 23 Stepping 6, GenuineIntel;
MC_ID=unknown;
OS=Windows_NT;
OS_RELEASE=unknown;
FRU=Parasolid Version 19.1, build 315,  1-13-2009;
APPL=SolidWorks 2009-2009077;
SITE=;
USER=unknown;
FORMAT=text;
GUISE=transmit;
KEY=Canard_Halves_Machineing_Asm;
FILE=Canard_Halves_Machineing_Asm.x_t;
DATE=Sun Oct 18 10:25:15 2009;
**PART2;
SCH=SCH_1901315_19008;
USFLD_SIZE=0;
**PART3;
**END_OF_HEADER*****************************************************************
T51 : TRANSMIT FILE created by modeller version 190131523 SCH_1901315_19008_1300
6186 0 10 255 1 5 2 3 0 0 0 0 0 1e3 1e-8 0 0 0 1 0 1 4 81 255 1 2 5 5 1 0 0 0 0
 0 70 11 CI9 list_type0 0 1 uI10 notransmit0 0 1 lCCCDCCDI12 finger_index0 0 1 d
I12 finger_block1012 0 CZ3 0 4 T1 0 0 1 20 1 6 6 11 255 4 3 0 1 7 8 1 9 0 9 0 12
 27 CCCCCCCCCCCCCCCCCCCCCCCA16 index_map_offset0 0 1 dA9 index_map82 0 A17 node_
id_index_map82 0 A20 schema_embedding_map82 0 Z7 1036 10 11 0 0 0 0 1e3 1e-8 4 1
2 0 1 0 1 1 13 14 15 16 17 18 19 0 0 0 0 100 255 8 4 4 0 0 -1 763278329429795e-3
1 277555756156289e-31 693889390390723e-32 -1 1474514954580286e-32 55511151231257
8e-31 0 1 .0434451147973288 .06985 -.00254 1 3 ?11 9 1 0 1 7 20 1 0 4 0 4 100 20
 2 9 0 0 1 0 0 0 1 0 0 0 1 .00254 .00254 -.00254 1 1 ?81 1 10 1036 5 7 0 0 0 0 2
1 70 11 0 4 T7 0 0 3 20 1 22 22 13 255 13 74 0 7 0 23 0 0 24 0 51 255 14 837 0 2
5 26 0 0 +.004127500000000075 .0225425 -9144e-7 0 0 -1 .0015875 -1 0 0 31 255 15
 697 0 18 27 0 0 +.004127500000000075 .0225425 0 0 0 -1 -1 0 0 .0015875 29 255 1
6 661 0 19 28 0 .002540000000000075 .0225425 0 19 255 17 22 0 7 24 0 29 V16 255
 18 688 0 ?30 0 31 15 0 0 7 18 255 19 659 0 30 0 32 16 ?7 17 255 30 0 33 34 35 1
9 36 18 0 37 +18 32 646 0 38 19 39 28 ?7 17 38 0 33 35 40 32 41 31 0 42 +18 39 6
43 0 36 32 43 44 ?7 29 28 648 0 32 44 16 .01657047515984975 .020955 0 29 44 645
 0 39 45 28 .004127500000000085 .020955 0 29 45 632 0 43 46 44 .0073162419425727
8 .04175109504058775 0 18 43 630 0 47 39 48 45 ?7 29 46 629 0 48 49 45 .01794537
994257275 .02333609504058785 0 18 48 627 0 41 43 50 46 ?7 29 49 611 0 50 51 46 .
0090805 .028194 -.002032 18 50 609 0 52 48 53 49 ?7 29 51 598 0 53 54 49 .010668
 .0337185 -.002032 18 53 596 0 55 50 56 51 ?7 29 54 595 0 56 57 51 .010668 .0297
815 -.002032 18 56 593 0 58 53 59 54 ?7 29 57 587 0 59 60 54 .0090805 .035306 -.
002032 18 59 585 0 61 56 62 57 ?7 29 60 564 0 62 63 57 .0090805 .035306 -9144e-7
 18 62 562 0 64 59 65 60 ?7 29 63 561 0 65 66 60 .00731624194257278 .04175109504
058775 -9144e-7 18 65 559 0 67 62 68 63 ?7 29 66 558 0 68 69 63 .017945379942572
75 .02333609504058785 -9144e-7 18 68 556 0 70 65 71 66 ?7 29 69 555 0 71 72 66 .
01657047515984975 .020955 -9144e-7 18 71 553 0 73 68 74 69 ?7 29 72 552 0 74 75
 69 .004127500000000085 .020955 -9144e-7 18 74 550 0 76 71 77 72 ?7 29 75 549 0
 77 78 72 .002540000000000075 .0225425 -9144e-7 18 77 547 0 79 74 80 75 ?7 29 78
 546 0 80 81 75 .0090805 .028194 -9144e-7 18 80 544 0 82 77 83 78 ?7 29 81 543 0
 83 84 78 .010668 .0337185 -9144e-7 18 83 541 0 85 80 86 81 ?7 29 84 540 0 86 87
 81 .010668 .0297815 -9144e-7 18 86 538 0 88 83 89 84 ?7 29 87 527 0 89 90 84 .0
0412749999999993 .042545 -9144e-7 18 89 525 0 91 86 92 87 ?7 29 90 524 0 92 93 8
7 .00594133715984977 .042545 -9144e-7 18 92 522 0 94 89 95 90 ?7 29 93 521 0 95
 96 90 .00412749999999993 .042545 0 18 95 519 0 97 92 98 93 ?7 29 96 518 0 98 99
 93 .00594133715984977 .042545 0 18 98 516 0 100 95 101 96 ?7 29 99 509 0 101 10
2 96 .00253999999999994 .0409575 0 18 101 507 0 103 98 104 99 ?7 29 102 506 0 10
4 105 99 .00253999999999994 .0409575 -9144e-7 18 104 504 0 106 101 107 102 ?7 29
 105 114 0 107 108 102 0 .028194 0 18 107 112 0 109 104 110 105 ?7 29 108 56 0 1
11 112 105 0 .0635 0 18 111 49 0 113 114 115 108 ?7 29 112 57 0 115 116 108 .036
6522 0 0 18 115 50 0 117 111 118 112 ?7 29 116 58 0 118 119 112 0 0 0 18 118 51
 0 120 115 121 116 ?7 29 119 21 0 110 122 116 0 .0635 -.00254 18 110 19 0 123 10
7 124 119 ?7 29 122 18 0 124 125 119 .0366522 0 -.00254 18 124 16 0 126 110 114
 122 ?7 29 125 15 0 114 127 122 0 0 -.00254 18 114 13 0 128 124 111 125 ?7 29 12
7 226 0 129 130 125 301728478373925e-32 .035306 0 18 129 176 0 131 132 133 127 ?
7 29 130 230 0 121 134 127 301728478373925e-32 .035306 -.002032 18 121 181 0 135
 118 132 130 ?7 29 134 233 0 132 136 130 4323737989069645e-33 .028194 -.002032 1
8 132 179 0 137 121 129 134 ?7 29 136 455 0 133 138 134 .002540000000000035 .028
194 -9144e-7 18 133 373 0 139 129 140 136 ?7 29 138 456 0 140 141 136 .00254 .03
5306 -9144e-7 18 140 379 0 142 133 143 138 ?7 29 141 459 0 143 144 138 .00254000
0000000035 .028194 0 18 143 380 0 145 140 146 141 ?7 29 144 460 0 146 0 141 .002
54 .035306 0 18 146 372 0 147 143 0 144 ?7 17 147 0 148 149 150 146 151 152 0 15
3 +15 255 148 392 0 154 155 0 17 149 0 148 154 147 140 153 156 0 0 -17 150 0 148
 147 154 101 157 158 0 151 +17 151 0 33 97 159 101 147 152 0 0 -16 152 508 0 ?14
7 160 161 162 161 161 7 17 153 0 163 131 142 146 149 156 0 159 +15 163 191 0 164
 165 0 17 131 0 163 166 153 129 159 167 0 168 +17 142 0 163 153 169 140 170 171
 0 172 +16 156 317 0 ?153 173 171 174 0 0 7 17 159 0 33 151 175 146 131 167 0 0
 -15 33 36 0 35 176 0 17 175 0 33 159 177 129 178 179 0 0 +16 167 281 0 ?131 180
 173 181 0 0 7 16 180 143 0 ?182 183 167 184 0 0 7 16 173 166 0 ?185 167 156 186
 0 0 7 30 255 181 219 0 167 186 187 0 +301728478373925e-32 .035306 0 -1 0 0 30 1
86 221 0 173 188 181 0 +4323737989069645e-33 .028194 0 1 0 0 30 187 217 0 189 18
1 190 0 +301728478373925e-32 .035306 -.002032 0 0 1 16 189 152 0 ?168 191 192 18
7 0 0 7 30 190 214 0 192 187 193 0 +4323737989069645e-33 .028194 -.002032 0 0 1
 16 192 148 0 ?109 189 194 190 0 0 7 30 193 5 0 195 190 196 0 +0 0 -.00254 0 -1
 0 16 195 4 0 ?197 198 199 193 0 0 7 30 196 8 0 198 193 200 0 +0 0 -.00254 1 0 0
 16 198 7 0 ?201 202 195 196 0 0 7 30 200 11 0 202 196 203 0 +0 .0635 -.00254 -.
49990238777179 .866081752896378 0 16 202 10 0 ?204 205 198 200 0 0 7 30 203 55 0
 179 200 206 0 +0 0 0 0 -1 0 16 179 45 0 ?175 207 191 203 191 191 7 30 206 54 0
 207 203 208 0 +0 0 0 1 0 0 16 207 41 0 ?209 199 179 206 0 0 7 30 208 53 0 199 2
06 210 0 +0 .0635 0 -.49990238777179 .866081752896378 0 16 199 37 0 ?177 195 207
 208 0 0 7 30 210 68 0 211 208 212 0 +0 .0635 -.00254 0 0 1 16 211 59 0 ?113 213
 214 210 0 0 7 30 212 69 0 214 210 215 0 +.0366522 0 -.00254 0 0 1 16 214 60 0 ?
117 211 205 212 0 0 7 30 215 70 0 205 212 216 0 +0 0 -.00254 0 0 1 16 205 61 0 ?
217 214 202 215 0 0 7 30 216 267 0 213 215 218 0 +4323737989069645e-33 .028194 -
9144e-7 1 0 0 16 213 265 0 ?219 220 211 216 0 0 7 30 218 270 0 220 216 221 0 +.0
02540000000000035 .028194 -.002032 0 0 -1 16 220 268 0 ?222 158 213 218 0 0 7 30
 221 512 0 158 218 223 0 +.00253999999999994 .0409575 0 0 0 1 16 158 510 0 ?150
 224 220 221 0 0 7 30 223 530 0 224 221 225 0 +.00594133715984977 .042545 0 0 0
 1 16 224 528 0 ?226 227 158 223 0 0 7 30 225 535 0 227 223 228 0 -.004127499999
99993 .042545 -9144e-7 0 0 1 16 227 533 0 ?91 229 224 225 0 0 7 31 228 567 0 229
 225 230 0 -.004127500000000075 .0225425 -9144e-7 0 0 -1 -1 0 0 .0015875 16 229
 565 0 ?76 231 227 228 0 0 7 31 230 572 0 231 228 232 0 -.01657047515984975 .022
5425 -9144e-7 0 0 -1 -1 0 0 .0015875 16 231 570 0 ?70 233 229 230 0 0 7 31 232 5
77 0 233 230 234 0 -.00594133715984978 .0409575 -9144e-7 0 0 -1 -1 0 0 .0015875
 16 233 575 0 ?94 235 231 232 0 0 7 31 234 582 0 235 232 236 0 -.004127499999999
94 .0409575 -9144e-7 0 0 -1 -1 0 0 .0015875 16 235 580 0 ?106 237 233 234 0 0 7
 30 236 590 0 237 234 238 0 +.0090805 .035306 -9144e-7 0 0 1 16 237 588 0 ?169 2
39 235 236 0 0 7 30 238 601 0 239 236 240 0 +.010668 .0297815 -9144e-7 0 0 1 16
 239 599 0 ?241 242 237 238 0 0 7 30 240 606 0 242 238 243 0 -.010668 .0337185 -
.002032 0 0 1 16 242 604 0 ?55 244 239 240 0 0 7 31 243 614 0 244 240 245 0 +.00
90805 .0297815 -.002032 0 0 1 1 0 0 .0015875 16 244 612 0 ?58 246 242 243 0 0 7
 31 245 619 0 246 243 247 0 +.0090805 .0337185 -.002032 0 0 1 1 0 0 .0015875 16
 246 617 0 ?61 248 244 245 0 0 7 30 247 624 0 248 245 249 0 -.0090805 .028194 -.
002032 0 0 1 16 248 622 0 ?52 250 246 247 0 0 7 30 249 635 0 250 247 251 0 +.017
94537994257275 .02333609504058785 0 0 0 1 16 250 633 0 ?252 253 248 249 0 0 7 30
 251 640 0 253 249 254 0 -.00731624194257278 .04175109504058775 -9144e-7 0 0 1 1
6 253 638 0 ?67 255 250 251 0 0 7 30 254 651 0 255 251 256 0 +.00412750000000008
5 .020955 0 0 0 1 16 255 649 0 ?257 258 253 254 0 0 7 30 256 656 0 258 254 259 0
 -.01657047515984975 .020955 -9144e-7 0 0 1 16 258 654 0 ?73 260 255 256 0 0 7 3
0 259 664 0 260 256 261 0 -.002540000000000075 .0225425 -9144e-7 0 0 1 16 260 66
2 0 ?79 262 258 259 0 0 7 31 261 692 0 262 259 263 0 +.00412749999999994 .040957
5 0 0 0 -1 -1 0 0 .0015875 16 262 668 0 ?97 264 260 261 0 0 7 31 263 693 0 264 2
61 265 0 +.0090805 .0337185 -9144e-7 0 0 -1 -1 0 0 .0015875 16 264 672 0 ?85 266
 262 263 0 0 7 31 265 694 0 266 263 267 0 +.0090805 .0297815 -9144e-7 0 0 -1 -1
 0 0 .0015875 16 266 676 0 ?82 268 264 265 0 0 7 31 267 695 0 268 265 27 0 +.005
94133715984978 .0409575 0 0 0 -1 -1 0 0 .0015875 16 268 680 0 ?47 31 266 267 0 0
 7 31 27 696 0 31 267 15 0 +.01657047515984975 .0225425 0 0 0 -1 -1 0 0 .0015875
 16 31 684 0 ?38 18 268 27 0 0 7 17 47 0 33 40 269 43 100 268 0 270 +17 40 0 33
 38 47 48 270 271 0 0 -17 269 0 33 47 97 98 272 273 0 0 -17 100 0 274 275 276 98
 47 268 0 226 -17 270 0 277 67 252 43 40 271 0 276 +15 277 416 0 270 278 0 17 67
 0 277 279 270 65 276 253 0 280 +17 252 0 277 270 279 48 281 250 0 40 +16 271 62
8 0 ?270 273 282 283 0 0 7 17 276 0 274 100 284 43 67 253 0 0 -15 274 784 0 284
 285 0 17 284 0 274 276 275 65 94 233 0 0 -17 275 0 274 284 100 92 226 224 0 0 -
17 94 0 286 287 280 92 284 233 0 288 +15 286 400 0 287 289 0 17 287 0 286 106 94
 89 288 290 0 291 +17 280 0 286 94 70 65 279 292 0 284 +17 288 0 293 226 91 92 2
87 290 0 275 -15 293 412 0 272 294 0 17 226 0 293 272 288 98 275 224 0 269 +17 9
1 0 293 288 272 89 295 227 0 287 +16 290 523 0 ?287 296 292 297 0 0 7 16 296 539
 0 ?298 171 290 299 0 0 7 16 292 557 0 ?280 290 300 301 0 0 7 30 297 449 0 290 3
01 302 0 +.00253999999999993 .042545 -9144e-7 -1 -803484704018887e-29 0 30 301 4
50 0 292 303 297 0 +.01931974799999995 .020955 -9144e-7 -.49990238777179 .866081
752896378 0 30 302 448 0 282 297 283 0 +.002540000000000085 .020955 0 1 72367381
9883216e-29 0 16 282 644 0 ?42 271 0 302 0 0 7 30 283 447 0 271 302 304 0 +.0193
1974799999995 .020955 0 -.49990238777179 .866081752896378 0 30 304 446 0 273 283
 162 0 +.00253999999999993 .042545 0 -1 -803484704018887e-29 0 16 273 517 0 ?272
 161 271 304 0 0 7 30 162 445 0 152 304 299 0 +.00254 .03175 0 727153657137106e-
29 -1 0 30 299 437 0 296 162 305 0 +.010668 .035306 -9144e-7 0 1 0 30 305 436 0
 171 299 174 0 +301728478373925e-32 .035306 -9144e-7 -1 0 0 16 171 563 0 ?142 15
6 296 305 0 0 7 30 174 435 0 156 305 184 0 +.00254 .035306 -.002032 0 0 1 30 184
 225 0 180 174 306 0 +0 .03175 -.002032 1215899322010584e-30 -1 0 30 306 224 0 1
83 184 307 0 +4323737989069645e-33 .028194 -.002032 1 0 0 16 183 157 0 ?308 309
 180 306 0 0 7 30 307 223 0 309 306 188 0 +.010668 .035306 -.002032 0 1 0 16 309
 594 0 ?310 194 183 307 0 0 7 30 188 222 0 194 307 186 0 +301728478373925e-32 .0
35306 -.002032 -1 0 0 16 194 586 0 ?135 192 309 188 0 0 7 17 135 0 311 182 61 12
1 164 194 0 166 +15 311 202 0 310 312 0 17 182 0 311 308 135 132 313 180 0 314 +
17 61 0 311 135 310 59 315 246 0 164 +17 164 0 163 169 166 59 135 194 0 316 -17
 166 0 163 164 131 121 168 189 0 313 -17 168 0 317 178 313 129 166 189 0 175 +17
 313 0 317 168 314 121 182 180 0 0 -15 317 138 0 168 23 0 17 314 0 317 313 318 1
32 109 192 0 0 -17 318 0 317 314 217 107 120 191 0 0 -17 109 0 319 185 137 107 3
14 192 0 320 +15 319 199 0 219 321 0 17 185 0 319 222 109 143 320 173 0 0 +17 13
7 0 319 109 52 132 308 183 0 182 -17 320 0 33 120 34 107 185 173 0 318 -17 120 0
 33 209 320 118 318 191 0 217 +17 34 0 33 320 30 143 37 161 0 185 -17 37 0 322 7
9 145 19 34 161 0 323 +16 161 328 0 ?37 152 273 162 152 152 7 15 322 397 0 37 32
4 0 17 79 0 322 325 37 77 323 260 0 326 +17 145 0 322 37 325 143 222 220 0 34 -1
7 323 0 327 36 328 19 79 260 0 0 -15 327 826 0 328 25 0 17 36 0 327 329 323 39 3
0 18 0 257 -17 328 0 327 323 329 77 76 229 0 0 -17 329 0 327 328 36 74 257 255 0
 0 -17 76 0 286 330 326 74 328 229 0 331 +17 330 0 286 70 76 71 331 300 0 332 +1
7 326 0 286 76 139 77 325 160 0 328 +17 331 0 333 257 73 74 330 300 0 329 -15 33
3 420 0 42 334 0 17 257 0 333 42 331 39 329 255 0 35 +17 73 0 333 331 42 71 335
 258 0 330 +16 300 551 0 ?330 292 336 303 0 0 7 16 336 505 0 ?172 300 160 337 16
0 160 7 30 303 451 0 300 337 301 0 +.002540000000000085 .020955 -9144e-7 1 72367
3819883216e-29 0 30 337 452 0 336 0 303 0 +.002540000000000085 .020955 -9144e-7
 723136233617011e-29 -1 0 17 172 0 286 170 106 140 154 336 0 149 +16 160 319 0 ?
326 336 152 337 336 336 7 17 170 0 286 85 172 62 142 171 0 0 -17 106 0 286 172 2
87 104 291 235 0 154 +17 154 0 148 150 149 104 172 336 0 157 -17 157 0 338 291 1
03 104 150 158 0 0 -15 338 721 0 291 339 0 17 291 0 338 295 157 89 106 235 0 0 -
17 103 0 338 157 295 101 97 262 0 150 -17 295 0 338 103 291 95 91 227 0 0 -17 97
 0 33 269 151 95 103 262 0 272 +17 272 0 293 91 226 95 269 273 0 295 +14 255 339
 720 340 ?341 334 338 13 342 -0 0 341 334 29 81 1 340 1030 343 339 344 0 345 346
 347 14 341 741 346 ?348 339 349 13 350 -0 0 348 339 29 14 334 417 345 ?339 278
 333 13 351 -0 0 339 278 29 51 342 732 0 339 352 350 0 +.00412749999999994 .0409
575 -9144e-7 0 0 -1 .0015875 -1 0 0 13 29 23 0 0 0 0 0 0 17 23 14 23 67 353 ?354
 0 317 13 352 +0 0 354 0 29 81 1 353 1015 343 23 355 0 0 356 357 14 354 63 356 ?
358 23 359 13 360 +0 0 358 23 29 50 255 352 73 0 23 361 342 0 +0 0 -.00254 -1 0
 0 0 0 1 50 361 72 0 358 360 352 0 +0 0 -.00254 0 -1 0 0 0 -1 14 358 65 362 ?363
 354 364 13 361 +0 0 363 354 29 50 360 71 0 354 365 361 0 +0 .0635 -.00254 .8660
81752896378 .49990238777179 0 -.49990238777179 .866081752896378 0 50 365 52 0 17
6 366 360 0 +0 0 0 0 0 -1 -1 0 0 14 176 35 367 ?165 363 33 13 365 -0 0 165 363 2
9 50 366 2 0 363 368 365 0 +0 0 -.00254 0 0 -1 -1 0 0 14 363 1 369 ?176 358 370
 13 366 +0 0 176 358 29 50 368 208 0 321 371 366 0 +4323737989069645e-33 .028194
 -.002032 0 -1 0 0 0 -1 14 321 196 372 ?312 373 319 13 368 -0 0 312 373 29 50 37
1 209 0 373 374 368 0 +.010668 .035306 -.002032 1 0 0 0 0 -1 14 373 192 375 ?321
 165 376 13 371 -0 0 321 165 29 50 374 210 0 165 377 371 0 +301728478373925e-32
 .035306 -.002032 0 1 0 0 0 1 14 165 188 378 ?373 176 163 13 374 -0 0 373 176 29
 50 377 213 0 312 351 374 0 +4323737989069645e-33 .028194 -.002032 0 0 1 1 0 0 1
4 312 200 379 ?155 321 311 13 377 +0 0 155 321 29 50 351 429 0 334 380 377 0 +.0
02540000000000085 .020955 -9144e-7 723673819883216e-29 -1 0 1 723673819883216e-2
9 0 50 380 430 0 278 381 351 0 +.01931974799999995 .020955 -9144e-7 .86608175289
6378 .49990238777179 0 -.49990238777179 .866081752896378 0 14 278 413 382 ?334 2
94 277 13 380 -0 0 334 294 29 50 381 431 0 294 383 380 0 +.00253999999999993 .04
2545 -9144e-7 -803484704018887e-29 1 0 -1 -803484704018887e-29 0 14 294 409 384
 ?278 289 293 13 381 -0 0 278 289 29 50 383 432 0 155 385 381 0 +.00254 .03175 -
9144e-7 -1 -727153657137106e-29 0 727153657137106e-29 -1 0 14 155 388 386 ?324 3
12 148 13 383 -324 324 324 312 29 50 385 434 0 289 0 383 0 +.00253999999999993 .
042545 -9144e-7 0 0 -1 -1 0 0 14 289 398 387 ?294 324 286 13 385 -0 0 294 324 29
 81 1 387 1026 343 289 388 0 389 384 390 14 324 393 389 ?289 155 322 13 383 -155
 155 289 155 29 81 1 389 1025 343 324 391 0 386 387 392 80 255 1 343 0 393 8001
 0 0 0 0 3 5 0 0 0 FFFFTFTFFFFFFF2 81 1 391 1004 394 324 0 389 388 395 396 81 1
 386 1024 343 155 397 0 379 389 398 83 255 3 392 .796078431372549 .8235294117647
06 .937254901960784 81 1 397 999 394 155 0 386 399 388 400 81 1 379 1023 343 312
 401 0 372 386 402 83 3 398 .796078431372549 .823529411764706 .937254901960784 8
1 1 401 993 394 312 0 379 403 404 405 81 1 372 1022 343 321 406 0 375 379 407 83
 3 402 .796078431372549 .823529411764706 .937254901960784 81 1 406 987 394 321 0
 372 408 409 410 81 1 375 1021 343 373 409 0 378 372 411 83 3 407 .7960784313725
49 .823529411764706 .937254901960784 81 1 409 989 394 373 0 375 406 403 412 81 1
 378 1020 343 165 403 0 367 375 413 83 3 411 .796078431372549 .823529411764706 .
937254901960784 81 1 403 991 394 165 0 378 409 401 414 81 1 367 1019 343 176 415
 0 369 378 416 83 3 413 .796078431372549 .823529411764706 .937254901960784 81 1
 415 983 394 176 0 367 417 408 418 81 1 369 1018 343 363 408 0 362 367 419 83 3
 416 .796078431372549 .823529411764706 .937254901960784 81 1 408 985 394 363 0 3
69 415 406 420 81 1 362 1017 343 358 417 0 356 369 421 83 3 419 .796078431372549
 .823529411764706 .937254901960784 81 1 417 981 394 358 0 362 422 415 423 81 1 3
56 1016 343 354 422 0 353 362 424 83 3 421 .796078431372549 .823529411764706 .93
7254901960784 81 1 422 979 394 354 0 356 355 417 425 83 3 424 .796078431372549 .
823529411764706 .937254901960784 80 1 394 426 427 9000 1 1 1 1 1 1 1 1 0 FFFFTFT
FFFFFFF1 81 1 355 977 394 23 0 353 428 422 429 82 255 1 425 271188414 81 1 428 9
75 394 334 0 345 430 355 431 82 1 429 271450578 81 1 345 1029 343 334 428 0 382
 340 432 81 1 430 973 394 341 0 346 344 428 433 82 1 431 -1234435622 81 1 346 10
31 343 341 430 0 340 434 435 81 1 344 971 394 339 0 340 0 430 436 82 1 433 -1212
874278 82 1 436 -1214840358 81 1 434 1032 343 348 395 0 346 437 438 83 3 435 .79
6078431372549 .823529411764706 .937254901960784 14 348 762 434 ?285 341 439 13 4
40 -0 0 285 341 29 81 1 395 1007 394 348 0 434 391 441 442 81 1 437 1033 343 285
 441 0 434 443 444 83 3 438 .796078431372549 .823529411764706 .937254901960784 1
4 285 783 437 ?445 348 274 13 446 -0 0 445 348 29 81 1 441 1009 394 285 0 437 39
5 447 448 81 1 443 1034 343 445 447 0 437 449 450 83 3 444 .796078431372549 .823
529411764706 .937254901960784 14 445 804 443 ?25 285 451 13 26 -0 0 25 285 29 81
 1 447 1011 394 445 0 443 441 452 453 81 1 449 1035 343 25 452 0 443 0 454 83 3
 450 .796078431372549 .823529411764706 .937254901960784 14 25 825 449 ?0 445 327
 13 14 -0 0 0 445 29 81 1 452 1013 394 25 0 449 447 0 455 83 3 454 .796078431372
549 .823529411764706 .937254901960784 82 1 455 -1205009958 82 1 453 -1206976038
 15 451 805 0 332 445 0 51 26 816 0 445 446 14 0 +.01657047515984975 .0225425 -9
144e-7 0 0 -1 .0015875 -1 0 0 51 446 795 0 285 440 26 0 +.00594133715984978 .040
9575 -9144e-7 0 0 -1 .0015875 -1 0 0 51 440 774 0 348 350 446 0 +.0090805 .02978
15 -.002032 0 0 -1 .0015875 -1 0 0 51 350 753 0 341 342 440 0 +.0090805 .0337185
 -.002032 0 0 -1 .0015875 -1 0 0 17 332 0 451 335 281 71 70 231 0 0 -17 335 0 45
1 41 332 32 73 258 0 0 -17 281 0 451 332 41 68 252 250 0 0 -17 70 0 286 280 330
 68 332 231 0 279 +17 279 0 277 252 67 68 280 292 0 281 -17 41 0 451 281 335 48
 38 31 0 252 -82 1 448 -1208942118 82 1 442 -1210908198 15 439 763 0 456 348 0 1
7 456 0 439 457 458 50 58 244 0 0 -17 457 0 439 88 456 80 52 248 0 0 -17 458 0 4
39 456 88 56 241 239 0 0 -17 58 0 311 310 308 56 456 244 0 459 +17 310 0 311 61
 58 53 459 309 0 315 +17 308 0 311 58 182 50 137 183 0 456 +17 459 0 376 241 55
 56 310 309 0 458 -15 376 195 0 298 373 0 17 241 0 376 298 459 86 458 239 0 460
 +17 55 0 376 459 298 53 461 242 0 310 +17 298 0 376 55 241 83 460 296 0 461 +17
 461 0 349 64 315 83 55 242 0 0 -15 349 742 0 315 341 0 17 64 0 349 316 461 62 8
5 264 0 169 -17 315 0 349 461 316 53 61 246 0 0 -17 316 0 349 315 64 59 169 237
 0 0 -17 169 0 163 142 164 62 316 237 0 170 +17 85 0 286 460 170 83 64 264 0 298
 +17 460 0 286 82 85 86 298 296 0 0 -17 82 0 286 139 460 80 88 266 0 219 +17 139
 0 286 326 82 133 219 213 0 325 -17 88 0 439 458 457 86 82 266 0 241 -17 219 0 3
19 52 222 80 139 213 0 457 +17 52 0 319 137 219 50 457 248 0 308 +17 222 0 319 2
19 185 133 145 220 0 0 +17 325 0 322 145 79 133 326 160 0 222 -81 1 382 1028 343
 278 404 0 384 345 462 83 3 432 .796078431372549 .823529411764706 .9372549019607
84 81 1 404 995 394 278 0 382 401 399 463 81 1 384 1027 343 294 399 0 387 382 46
4 83 3 462 .796078431372549 .823529411764706 .937254901960784 81 1 399 997 394 2
94 0 384 404 397 465 83 3 464 .796078431372549 .823529411764706 .937254901960784
 82 1 465 -1234697766 82 1 463 -1234566694 79 255 14 427 SWEntUnchanged82 1 423
 271319486 82 1 420 266011070 82 1 418 268894682 82 1 414 -1811545638 82 1 412 -
1811414566 82 1 410 -1811283494 82 1 405 -1819606566 81 1 388 1002 394 289 0 387
 397 391 466 82 1 400 -1224343078 82 1 466 -1225326118 82 1 396 -1224932902 79 1
5 393 SDL/TYSA_COLOUR83 3 390 .796078431372549 .823529411764706 .937254901960784
 15 370 3 0 467 363 0 17 467 0 370 468 469 110 197 195 0 204 -17 468 0 370 469 4
67 124 204 202 0 0 -17 469 0 370 467 468 114 201 198 0 197 -17 197 0 317 217 123
 114 467 195 0 0 +17 204 0 359 113 126 110 468 202 0 0 +15 359 62 0 470 354 0 17
 113 0 359 470 204 111 123 211 0 178 +17 126 0 359 204 470 124 117 214 0 201 -17
 470 0 359 126 113 115 177 199 0 0 -17 117 0 364 471 201 115 126 214 0 209 +17 2
01 0 364 117 128 124 469 198 0 468 +15 364 64 0 471 358 0 17 128 0 364 201 471 1
14 217 205 0 469 -17 471 0 364 128 117 118 209 207 0 0 -17 217 0 317 318 197 118
 128 205 0 471 +17 209 0 33 177 120 115 471 207 0 470 +17 177 0 33 175 209 111 4
70 199 0 0 +17 123 0 317 197 178 110 113 211 0 467 -17 178 0 317 123 168 111 175
 179 0 177 -83 3 357 .796078431372549 .823529411764706 .937254901960784 83 3 347
 .796078431372549 .823529411764706 .937254901960784 17 42 0 333 73 257 32 35 282
 0 335 +17 35 0 33 30 38 39 42 282 0 0 -16 191 113 0 ?120 179 189 203 179 179 7
 19 24 75 0 7 0 17 13 S74 4 CI16 index_map_offset0 0 1 dCCZ20 22 3 0 0 452 449 1
0 0 0 0 0 0 0 0 0 0 0 0 0 0 0 0 0 0 80 1 5 472 473 8017 0 0 0 0 0 0 0 0 0 TTTTTT
TTTTTTTF3 84 255 12 21 Canard_Half279 13 473 SDL/TYSA_NAME74 20 6 1 0 0 2 0 0 0
 0 0 0 0 0 0 0 0 0 0 0 0 0 0 0 0 1 0 
