**ABCDEFGHIJKLMNOPQRSTUVWXYZabcdefghijklmnopqrstuvwxyz**************************
**PARASOLID !"#$%&'()*+,-./:;<=>?@[\]^_`{|}~0123456789**************************
**PART1;
MC=x86;
MC_MODEL=x86 Family 6 Model 23 Stepping 6, GenuineIntel;
MC_ID=unknown;
OS=Windows_NT;
OS_RELEASE=unknown;
FRU=Parasolid Version 19.1, build 315,  1-13-2009;
APPL=SolidWorks 2009-2009077;
SITE=;
USER=unknown;
FORMAT=text;
GUISE=transmit;
KEY=Canard_Halves_1_Machineing_Asm;
FILE=Canard_Halves_1_Machineing_Asm.x_t;
DATE=Sun Oct 18 13:12:16 2009;
**PART2;
SCH=SCH_1901315_19008;
USFLD_SIZE=0;
**PART3;
**END_OF_HEADER*****************************************************************
T51 : TRANSMIT FILE created by modeller version 190131523 SCH_1901315_19008_1300
6186 0 10 255 1 5 2 3 0 0 0 0 0 1e3 1e-8 0 0 0 1 0 1 4 81 255 1 2 5 5 1 0 0 0 0
 0 70 11 CI9 list_type0 0 1 uI10 notransmit0 0 1 lCCCDCCDI12 finger_index0 0 1 d
I12 finger_block1012 0 CZ3 0 4 T1 0 0 1 20 1 6 6 11 255 4 3 0 1 7 8 1 9 0 9 0 12
 27 CCCCCCCCCCCCCCCCCCCCCCCA16 index_map_offset0 0 1 dA9 index_map82 0 A17 node_
id_index_map82 0 A20 schema_embedding_map82 0 Z7 997 10 11 0 0 0 0 1e3 1e-8 4 12
 0 1 0 1 1 13 14 15 16 17 18 19 0 0 0 0 100 255 8 4 4 0 0 1 1533566712445785e-31
 0 1533566712445785e-31 -1 0 0 0 -1 .002540000000000085 -.00254000000000011 -.00
254 1 3 ?11 9 1 0 1 7 20 1 0 4 0 4 100 20 2 9 0 0 -1 688007796803749e-29 0 68800
7796803749e-29 1 0 0 0 -1 .0437383896517527 -.06985 -.00254 1 3 ?81 1 10 997 5 7
 0 0 0 0 21 70 11 0 4 T7 0 0 3 20 1 22 22 13 255 13 74 0 7 0 23 0 0 24 0 51 255
 14 835 0 25 26 0 0 +.0041275 .0409575 9144e-7 0 0 1 .0015875 1 0 0 31 255 15 69
5 0 18 27 0 0 -.0041275 .0409575 0 0 0 -1 -1 0 0 .0015875 29 255 16 659 0 19 28
 0 .00254 .0409575 0 19 255 17 22 0 7 24 0 29 V16 255 18 686 0 ?30 0 31 15 0 0 7
 18 255 19 657 0 30 0 32 16 ?7 17 255 30 0 33 34 35 19 36 18 0 37 +18 32 644 0 3
8 19 39 28 ?7 17 38 0 33 35 40 32 41 31 0 42 +18 39 641 0 36 32 43 44 ?7 29 28 6
46 0 32 44 16 .00593752715984977 .042545 0 29 44 643 0 39 45 28 .0041275 .042545
 0 29 45 630 0 43 46 44 .0179415699425728 .0233360950405877 0 18 43 628 0 47 39
 48 45 ?7 29 46 627 0 48 49 45 .00731243194257277 .0417510950405877 0 18 48 625
 0 41 43 50 46 ?7 29 49 609 0 50 51 46 .0090805 .028194 .002032 18 50 607 0 52 4
8 53 49 ?7 29 51 601 0 53 54 49 .0090805 .035306 .002032 18 53 599 0 55 50 56 51
 ?7 29 54 588 0 56 57 51 .010668 .0297815 .002032 18 56 586 0 58 53 59 54 ?7 29
 57 585 0 59 60 54 .010668 .0337185 .002032 18 59 583 0 61 56 62 57 ?7 29 60 562
 0 62 63 57 .0090805 .028194 9144e-7 18 62 560 0 64 59 65 60 ?7 29 63 559 0 65 6
6 60 .0179415699425728 .0233360950405877 9144e-7 18 65 557 0 67 62 68 63 ?7 29 6
6 556 0 68 69 63 .00731243194257277 .0417510950405877 9144e-7 18 68 554 0 70 65
 71 66 ?7 29 69 553 0 71 72 66 .00593752715984977 .042545 9144e-7 18 71 551 0 73
 68 74 69 ?7 29 72 550 0 74 75 69 .0041275 .042545 9144e-7 18 74 548 0 76 71 77
 72 ?7 29 75 547 0 77 78 72 .00254 .0409575 9144e-7 18 77 545 0 79 74 80 75 ?7 2
9 78 544 0 80 81 75 .0090805 .035306 9144e-7 18 80 542 0 82 77 83 78 ?7 29 81 54
1 0 83 84 78 .010668 .0297815 9144e-7 18 83 539 0 85 80 86 81 ?7 29 84 538 0 86
 87 81 .010668 .0337185 9144e-7 18 86 536 0 88 83 89 84 ?7 29 87 525 0 89 90 84
 .0041275 .020955 9144e-7 18 89 523 0 91 86 92 87 ?7 29 90 522 0 92 93 87 .01656
666515984975 .020955 9144e-7 18 92 520 0 94 89 95 90 ?7 29 93 519 0 95 96 90 .00
41275 .020955 0 18 95 517 0 97 92 98 93 ?7 29 96 516 0 98 99 93 .016566665159849
75 .020955 0 18 98 514 0 100 95 101 96 ?7 29 99 507 0 101 102 96 .00254 .0225425
 0 18 101 505 0 103 98 104 99 ?7 29 102 504 0 104 105 99 .00254 .0225425 9144e-7
 18 104 502 0 106 101 107 102 ?7 29 105 110 0 107 108 102 0 .035306 0 18 107 108
 0 109 104 110 105 ?7 29 108 56 0 111 112 105 0 .0635 0 18 111 49 0 113 114 115
 108 ?7 29 112 57 0 115 116 108 .0366522 0 0 18 115 50 0 117 111 118 112 ?7 29 1
16 58 0 118 119 112 0 0 0 18 118 51 0 120 115 121 116 ?7 29 119 21 0 110 122 116
 0 .0635 .00254 18 110 19 0 123 107 124 119 ?7 29 122 18 0 124 125 119 .0366522
 0 .00254 18 124 16 0 126 110 114 122 ?7 29 125 15 0 114 127 122 0 0 .00254 18 1
14 13 0 128 124 111 125 ?7 29 127 225 0 129 130 125 -4323737989069645e-33 .02819
4 0 18 129 178 0 131 132 133 127 ?7 29 130 229 0 121 134 127 -4323737989069645e-
33 .028194 .002032 18 121 179 0 135 118 132 130 ?7 29 134 232 0 132 136 130 -301
728478373925e-32 .035306 .002032 18 132 180 0 137 121 129 134 ?7 29 136 453 0 13
3 138 134 .00254 .035306 9144e-7 18 133 371 0 139 129 140 136 ?7 29 138 454 0 14
0 141 136 .00254 .028194 9144e-7 18 140 377 0 142 133 143 138 ?7 29 141 457 0 14
3 144 138 .00254 .035306 0 18 143 378 0 145 140 146 141 ?7 29 144 458 0 146 0 14
1 .00254 .028194 0 18 146 370 0 147 143 0 144 ?7 17 147 0 148 149 150 146 151 15
2 0 153 +15 255 148 390 0 154 155 0 17 149 0 148 154 147 140 153 156 0 0 -17 150
 0 148 147 154 101 157 158 0 151 +17 151 0 33 97 159 101 147 152 0 0 -16 152 506
 0 ?147 160 161 162 161 161 7 17 153 0 163 131 142 146 149 156 0 159 +15 163 185
 0 164 165 0 17 131 0 163 166 153 129 159 167 0 168 +17 142 0 163 153 169 140 17
0 171 0 172 +16 156 315 0 ?153 173 171 174 0 0 7 17 159 0 33 151 175 146 131 167
 0 0 -15 33 306 0 151 176 0 17 175 0 33 159 177 129 120 178 0 0 -16 167 279 0 ?1
31 179 173 180 0 0 7 16 179 154 0 ?137 181 167 182 0 0 7 16 173 168 0 ?183 167 1
56 184 0 0 7 30 255 180 217 0 167 184 185 0 +-4323737989069645e-33 .028194 0 -1
 0 0 30 184 219 0 173 186 180 0 +-301728478373925e-32 .035306 0 1 0 0 30 185 216
 0 187 180 188 0 +-4323737989069645e-33 .028194 .002032 0 0 -1 16 187 145 0 ?168
 178 189 185 0 0 7 30 188 213 0 189 185 190 0 +-301728478373925e-32 .035306 .002
032 0 0 -1 16 189 159 0 ?109 187 191 188 0 0 7 30 190 5 0 192 188 193 0 +0 0 .00
254 0 -1 0 16 192 4 0 ?194 195 196 190 0 0 7 30 193 8 0 195 190 197 0 +0 0 .0025
4 1 0 0 16 195 7 0 ?126 198 192 193 0 0 7 30 197 11 0 198 193 199 0 +0 .0635 .00
254 -.49990238777179 .866081752896378 0 16 198 10 0 ?123 200 195 197 0 0 7 30 19
9 55 0 201 197 202 0 +0 0 0 0 -1 0 16 201 45 0 ?203 204 178 199 178 178 7 30 202
 54 0 204 199 205 0 +0 0 0 1 0 0 16 204 41 0 ?117 196 201 202 0 0 7 30 205 53 0
 196 202 206 0 +0 .0635 0 -.49990238777179 .866081752896378 0 16 196 37 0 ?113 1
92 204 205 0 0 7 30 206 68 0 200 205 207 0 +0 .0635 .00254 0 0 -1 16 200 59 0 ?2
08 209 198 206 0 0 7 30 207 69 0 209 206 210 0 +.0366522 0 .00254 0 0 -1 16 209
 60 0 ?211 212 200 207 0 0 7 30 210 70 0 212 207 213 0 +0 0 .00254 0 0 -1 16 212
 61 0 ?214 215 209 210 0 0 7 30 213 265 0 215 210 216 0 +-301728478373925e-32 .0
35306 9144e-7 1 0 0 16 215 263 0 ?217 218 212 213 0 0 7 30 216 268 0 218 213 219
 0 +.00254 .035306 .002032 0 0 1 16 218 266 0 ?220 158 215 216 0 0 7 30 219 510
 0 158 216 221 0 +.00254 .0225425 0 0 0 -1 16 158 508 0 ?150 222 218 219 0 0 7 3
0 221 528 0 222 219 223 0 +.01656666515984975 .020955 216840434497101e-33 0 0 -1
 16 222 526 0 ?224 225 158 221 0 0 7 30 223 533 0 225 221 226 0 -.0041275 .02095
5 9144e-7 0 0 -1 16 225 531 0 ?91 227 222 223 0 0 7 31 226 565 0 227 223 228 0 -
.0041275 .0409575 9144e-7 0 0 1 1 0 0 .0015875 16 227 563 0 ?76 229 225 226 0 0
 7 31 228 570 0 229 226 230 0 -.00593752715984977 .0409575 9144e-7 0 0 1 1 0 0 .
0015875 16 229 568 0 ?70 231 227 228 0 0 7 31 230 575 0 231 228 232 0 -.01656666
515984975 .0225425 9144e-7 0 0 1 1 0 0 .0015875 16 231 573 0 ?94 233 229 230 0 0
 7 31 232 580 0 233 230 234 0 -.0041275 .0225425 9144e-7 0 0 1 1 0 0 .0015875 16
 233 578 0 ?106 235 231 232 0 0 7 30 234 591 0 235 232 236 0 -.010668 .0297815 .
002032 0 0 -1 16 235 589 0 ?58 237 233 234 0 0 7 30 236 596 0 237 234 238 0 +.01
0668 .0337185 9144e-7 0 0 -1 16 237 594 0 ?239 240 235 236 0 0 7 30 238 604 0 24
0 236 241 0 -.0090805 .035306 .002032 0 0 -1 16 240 602 0 ?55 242 237 238 0 0 7
 31 241 612 0 242 238 243 0 -.0090805 .0297815 .002032 0 0 1 1 0 0 .0015875 16 2
42 610 0 ?52 244 240 241 0 0 7 31 243 617 0 244 241 245 0 -.0090805 .0337185 .00
2032 0 0 1 1 0 0 .0015875 16 244 615 0 ?61 246 242 243 0 0 7 30 245 622 0 246 24
3 247 0 +.0090805 .028194 9144e-7 0 0 -1 16 246 620 0 ?169 248 244 245 0 0 7 30
 247 633 0 248 245 249 0 +.00731243194257277 .0417510950405877 0 0 0 -1 16 248 6
31 0 ?250 251 246 247 0 0 7 30 249 638 0 251 247 252 0 -.01794156994257275 .0233
360950405877 9144e-7 0 0 -1 16 251 636 0 ?67 253 248 249 0 0 7 30 252 649 0 253
 249 254 0 +.0041275 .042545 0 0 0 -1 16 253 647 0 ?255 256 251 252 0 0 7 30 254
 654 0 256 252 257 0 -.00593752715984977 .042545 9144e-7 0 0 -1 16 256 652 0 ?73
 258 253 254 0 0 7 30 257 662 0 258 254 259 0 -.00254 .0409575 9144e-7 0 0 -1 16
 258 660 0 ?79 260 256 257 0 0 7 31 259 690 0 260 257 261 0 -.0041275 .0225425 0
 0 0 -1 -1 0 0 .0015875 16 260 666 0 ?97 262 258 259 0 0 7 31 261 691 0 262 259
 263 0 +.0090805 .0337185 9144e-7 0 0 1 1 0 0 .0015875 16 262 670 0 ?82 264 260
 261 0 0 7 31 263 692 0 264 261 265 0 +.0090805 .0297815 9144e-7 0 0 1 1 0 0 .00
15875 16 264 674 0 ?85 266 262 263 0 0 7 31 265 693 0 266 263 27 0 -.01656666515
984975 .0225425 0 0 0 -1 -1 0 0 .0015875 16 266 678 0 ?47 31 264 265 0 0 7 31 27
 694 0 31 265 15 0 -.00593752715984977 .0409575 0 0 0 -1 -1 0 0 .0015875 16 31 6
82 0 ?38 18 266 27 0 0 7 17 47 0 33 40 267 43 100 266 0 268 +17 40 0 33 38 47 48
 268 269 0 0 -17 267 0 33 47 97 98 270 271 0 0 -17 100 0 272 273 274 98 47 266 0
 224 -17 268 0 275 67 250 43 40 269 0 274 +15 275 414 0 268 276 0 17 67 0 275 27
7 268 65 274 251 0 278 +17 250 0 275 268 277 48 279 248 0 40 +16 269 626 0 ?268
 271 280 281 0 0 7 17 274 0 272 100 282 43 67 251 0 0 -15 272 782 0 282 283 0 17
 282 0 272 274 273 65 94 231 0 0 -17 273 0 272 282 100 92 224 222 0 0 -17 94 0 2
84 285 278 92 282 231 0 286 +15 284 398 0 285 287 0 17 285 0 284 106 94 89 286 2
88 0 289 +17 278 0 284 94 70 65 277 290 0 282 +17 286 0 291 224 91 92 285 288 0
 273 -15 291 410 0 270 292 0 17 224 0 291 270 286 98 273 222 0 267 +17 91 0 291
 286 270 89 293 225 0 285 +16 288 521 0 ?285 294 290 295 0 0 7 16 294 537 0 ?296
 171 288 297 0 0 7 16 290 555 0 ?278 288 298 299 0 0 7 30 295 447 0 288 299 300
 0 +.00254 .020955 9144e-7 -1 206810906904497e-30 0 30 299 448 0 290 301 295 0 +
.00685419 .042545 9144e-7 .49990238777179 -.866081752896379 0 30 300 446 0 280 2
95 281 0 +.00254 .042545 0 1 0 0 16 280 642 0 ?42 269 0 300 0 0 7 30 281 445 0 2
69 300 302 0 +.00685419 .042545 0 .49990238777179 -.866081752896379 0 30 302 444
 0 271 281 162 0 +.00254 .020955 0 -1 206810906904497e-30 0 16 271 515 0 ?270 16
1 269 302 0 0 7 30 162 443 0 152 302 297 0 +.00254 .03175 0 1205227056028352e-31
 1 0 30 297 435 0 294 162 303 0 +.010668 .035306 9144e-7 -731744998302927e-30 -1
 0 30 303 434 0 171 297 174 0 +-4323737989069645e-33 .028194 9144e-7 -1 0 0 16 1
71 561 0 ?142 156 294 303 0 0 7 30 174 433 0 156 303 182 0 +.00254 .028194 .0020
32 0 0 -1 30 182 224 0 179 174 304 0 +0 .03175 .002032 1215899322010584e-30 1 0
 30 304 223 0 181 182 305 0 +-301728478373925e-32 .035306 .002032 1 0 0 16 181 1
50 0 ?306 307 179 304 0 0 7 30 305 222 0 307 304 186 0 +.010668 .035306 .002032
 -731744998302927e-30 -1 0 16 307 584 0 ?308 191 181 305 0 0 7 30 186 221 0 191
 305 184 0 +-4323737989069645e-33 .028194 .002032 -1 0 0 16 191 608 0 ?135 189 3
07 186 0 0 7 17 135 0 309 137 52 121 164 191 0 166 +15 309 201 0 306 310 0 17 13
7 0 309 306 135 132 311 179 0 312 +17 52 0 309 135 308 50 313 242 0 164 +17 164
 0 163 169 166 50 135 191 0 314 -17 166 0 163 164 131 121 168 187 0 311 -17 168
 0 315 120 311 129 166 187 0 175 +17 311 0 315 168 316 121 137 179 0 0 -15 315 6
6 0 311 23 0 17 316 0 315 311 203 132 109 189 0 0 -17 203 0 315 316 208 107 317
 201 0 0 +17 109 0 318 183 312 107 316 189 0 319 +15 318 193 0 217 320 0 17 183
 0 318 220 109 143 319 173 0 0 +17 312 0 318 109 55 132 306 181 0 316 -17 319 0
 33 317 34 107 183 173 0 203 -17 317 0 33 321 319 111 203 201 0 0 -17 34 0 33 31
9 30 143 37 161 0 183 -17 37 0 322 79 145 19 34 161 0 323 +16 161 326 0 ?37 152
 271 162 152 152 7 15 322 395 0 37 324 0 17 79 0 322 325 37 77 323 258 0 326 +17
 145 0 322 37 325 143 220 218 0 34 -17 323 0 327 36 328 19 79 258 0 0 -15 327 82
4 0 328 25 0 17 36 0 327 329 323 39 30 18 0 255 -17 328 0 327 323 329 77 76 227
 0 0 -17 329 0 327 328 36 74 255 253 0 0 -17 76 0 284 330 326 74 328 227 0 331 +
17 330 0 284 70 76 71 331 298 0 332 +17 326 0 284 76 139 77 325 160 0 328 +17 33
1 0 333 255 73 74 330 298 0 329 -15 333 418 0 42 334 0 17 255 0 333 42 331 39 32
9 253 0 35 +17 73 0 333 331 42 71 335 256 0 330 +16 298 549 0 ?330 290 336 301 0
 0 7 16 336 503 0 ?172 298 160 337 160 160 7 30 301 449 0 298 337 299 0 +.00254
 .042545 9144e-7 1 0 0 30 337 450 0 336 0 301 0 +.00254 .042545 9144e-7 12052270
56028352e-31 1 0 17 172 0 284 170 106 140 154 336 0 149 +16 160 317 0 ?326 336 1
52 337 336 336 7 17 170 0 284 85 172 62 142 171 0 0 -17 106 0 284 172 285 104 28
9 233 0 154 +17 154 0 148 150 149 104 172 336 0 157 -17 157 0 338 289 103 104 15
0 158 0 0 -15 338 719 0 289 339 0 17 289 0 338 293 157 89 106 233 0 0 -17 103 0
 338 157 293 101 97 260 0 150 -17 293 0 338 103 289 95 91 225 0 0 -17 97 0 33 26
7 151 95 103 260 0 270 +17 270 0 291 91 224 95 267 271 0 293 +14 255 339 718 340
 ?341 334 338 13 342 -0 0 341 334 29 81 1 340 991 343 339 344 0 345 346 347 14 3
41 739 346 ?348 339 349 13 350 -0 0 348 339 29 14 334 415 345 ?339 276 333 13 35
1 -0 0 339 276 29 51 342 730 0 339 352 350 0 +.0041275 .0225425 9144e-7 0 0 1 .0
015875 1 0 0 13 29 23 0 0 0 0 0 0 17 23 14 23 67 353 ?354 0 315 13 352 -0 0 354
 0 29 81 1 353 976 343 23 355 0 0 356 357 14 354 65 356 ?358 23 359 13 360 -0 0
 358 23 29 50 255 352 73 0 23 360 342 0 +0 0 .00254 1 0 0 0 0 -1 50 360 72 0 354
 361 352 0 +0 0 .00254 0 1 0 0 0 1 50 361 71 0 358 362 360 0 +0 .0635 .00254 -.8
66081752896378 -.49990238777179 0 .49990238777179 -.866081752896378 0 14 358 63
 363 ?364 354 365 13 361 -0 0 364 354 29 50 362 52 0 176 366 361 0 +0 0 0 0 0 -1
 -1 0 0 14 176 35 367 ?165 364 33 13 362 +0 0 165 364 29 50 366 2 0 364 368 362
 0 +0 0 .00254 0 0 -1 -1 0 0 14 364 1 369 ?176 358 370 13 366 -0 0 176 358 29 50
 368 208 0 320 371 366 0 +-301728478373925e-32 .035306 .002032 0 1 0 0 0 1 14 32
0 190 372 ?310 373 318 13 368 -0 0 310 373 29 50 371 209 0 373 374 368 0 +.01066
8 .035306 .002032 1 -731744998302927e-30 0 731744998302927e-30 1 0 14 373 186 37
5 ?320 165 376 13 371 -0 0 320 165 29 50 374 210 0 165 377 371 0 +-4323737989069
645e-33 .028194 .002032 0 -1 0 0 0 -1 14 165 182 378 ?373 176 163 13 374 -0 0 37
3 176 29 50 377 212 0 310 351 374 0 +-4323737989069645e-33 .028194 .002032 0 0 1
 1 0 0 14 310 199 379 ?155 320 309 13 377 -0 0 155 320 29 50 351 427 0 334 380 3
77 0 +.00254 .042545 9144e-7 0 1 0 0 0 1 50 380 428 0 276 381 351 0 +.00685419 .
042545 9144e-7 .866081752896379 .49990238777179 0 -.499902387771789 .86608175289
6378 0 14 276 411 382 ?334 292 275 13 380 -0 0 334 292 29 50 381 429 0 292 383 3
80 0 +.00254 .020955 9144e-7 -206810906904497e-30 -1 0 1 -206810906904497e-30 0
 14 292 407 384 ?276 287 291 13 381 -0 0 276 287 29 50 383 430 0 155 385 381 0 +
.00254 .03175 9144e-7 -1 1205227056028352e-31 0 -1205227056028352e-31 -1 0 14 15
5 386 386 ?324 310 148 13 383 -324 324 324 310 29 50 385 432 0 287 0 383 0 +.002
54 .020955 9144e-7 0 0 1 1 0 0 14 287 396 387 ?292 324 284 13 385 -0 0 292 324 2
9 81 1 387 987 343 287 388 0 389 384 390 14 324 391 389 ?287 155 322 13 383 -155
 155 287 155 29 81 1 389 986 343 324 391 0 386 387 392 80 255 1 343 0 393 8001 0
 0 0 0 3 5 0 0 0 FFFFTFTFFFFFFF2 81 1 391 965 394 324 0 389 388 395 396 81 1 386
 985 343 155 397 0 379 389 398 83 255 3 392 .796078431372549 .823529411764706 .9
37254901960784 81 1 397 960 394 155 0 386 399 388 400 81 1 379 984 343 310 401 0
 372 386 402 83 3 398 .796078431372549 .823529411764706 .937254901960784 81 1 40
1 954 394 310 0 379 403 404 405 81 1 372 983 343 320 406 0 375 379 407 83 3 402
 .796078431372549 .823529411764706 .937254901960784 81 1 406 948 394 320 0 372 4
08 409 410 81 1 375 982 343 373 409 0 378 372 411 83 3 407 .796078431372549 .823
529411764706 .937254901960784 81 1 409 950 394 373 0 375 406 403 412 81 1 378 98
1 343 165 403 0 367 375 413 83 3 411 .796078431372549 .823529411764706 .93725490
1960784 81 1 403 952 394 165 0 378 409 401 414 81 1 367 980 343 176 415 0 369 37
8 416 83 3 413 .796078431372549 .823529411764706 .937254901960784 81 1 415 944 3
94 176 0 367 417 408 418 81 1 369 979 343 364 408 0 363 367 419 83 3 416 .796078
431372549 .823529411764706 .937254901960784 81 1 408 946 394 364 0 369 415 406 4
20 81 1 363 978 343 358 417 0 356 369 421 83 3 419 .796078431372549 .82352941176
4706 .937254901960784 81 1 417 942 394 358 0 363 422 415 423 81 1 356 977 343 35
4 422 0 353 363 424 83 3 421 .796078431372549 .823529411764706 .937254901960784
 81 1 422 940 394 354 0 356 355 417 425 83 3 424 .796078431372549 .8235294117647
06 .937254901960784 80 1 394 426 427 9000 1 1 1 1 1 1 1 1 0 FFFFTFTFFFFFFF1 81 1
 355 938 394 23 0 353 428 422 429 82 255 1 425 1018102049 81 1 428 936 394 334 0
 345 430 355 431 82 1 429 40042936 81 1 345 990 343 334 428 0 382 340 432 81 1 4
30 934 394 341 0 346 344 428 433 82 1 431 878969275 81 1 346 992 343 341 430 0 3
40 434 435 81 1 344 932 394 339 0 340 0 430 436 82 1 433 900530619 82 1 436 8985
64539 81 1 434 993 343 348 395 0 346 437 438 83 3 435 .796078431372549 .82352941
1764706 .937254901960784 14 348 760 434 ?283 341 439 13 440 -0 0 283 341 29 81 1
 395 968 394 348 0 434 391 441 442 81 1 437 994 343 283 441 0 434 443 444 83 3 4
38 .796078431372549 .823529411764706 .937254901960784 14 283 781 437 ?445 348 27
2 13 446 -0 0 445 348 29 81 1 441 970 394 283 0 437 395 447 448 81 1 443 995 343
 445 447 0 437 449 450 83 3 444 .796078431372549 .823529411764706 .9372549019607
84 14 445 802 443 ?25 283 451 13 26 -0 0 25 283 29 81 1 447 972 394 445 0 443 44
1 452 453 81 1 449 996 343 25 452 0 443 0 454 83 3 450 .796078431372549 .8235294
11764706 .937254901960784 14 25 823 449 ?0 445 327 13 14 -0 0 0 445 29 81 1 452
 974 394 25 0 449 447 0 455 83 3 454 .796078431372549 .823529411764706 .93725490
1960784 82 1 455 908394939 82 1 453 906428859 15 451 803 0 332 445 0 51 26 814 0
 445 446 14 0 +.00593752715984977 .0409575 9144e-7 0 0 1 .0015875 1 0 0 51 446 7
93 0 283 440 26 0 +.01656666515984975 .0225425 9144e-7 0 0 1 .0015875 1 0 0 51 4
40 772 0 348 350 446 0 +.0090805 .0297815 .002032 0 0 1 .0015875 1 0 0 51 350 75
1 0 341 342 440 0 +.0090805 .0337185 .002032 0 0 1 .0015875 1 0 0 17 332 0 451 3
35 279 71 70 229 0 0 -17 335 0 451 41 332 32 73 256 0 0 -17 279 0 451 332 41 68
 250 248 0 0 -17 70 0 284 278 330 68 332 229 0 277 +17 277 0 275 250 67 68 278 2
90 0 279 -17 41 0 451 279 335 48 38 31 0 250 -82 1 448 904462779 82 1 442 902496
699 15 439 761 0 313 348 0 17 313 0 439 456 314 56 52 242 0 0 -17 456 0 439 64 3
13 83 58 235 0 0 -17 314 0 439 313 64 50 169 246 0 0 -17 64 0 439 314 456 62 85
 264 0 169 -17 169 0 163 142 164 62 314 246 0 170 +17 85 0 284 457 170 83 64 264
 0 296 +17 457 0 284 82 85 86 296 294 0 0 -17 296 0 376 58 239 83 457 294 0 456
 +15 376 189 0 458 373 0 17 58 0 376 458 296 56 456 235 0 308 +17 239 0 376 296
 458 86 459 237 0 457 +17 458 0 376 239 58 59 308 307 0 459 -17 459 0 349 460 88
 59 239 237 0 0 -15 349 740 0 460 341 0 17 460 0 349 461 459 53 61 244 0 0 -17 8
8 0 349 459 461 86 82 262 0 239 -17 461 0 349 88 460 80 55 240 0 0 -17 82 0 284
 139 457 80 88 262 0 217 +17 139 0 284 326 82 133 217 215 0 325 -17 217 0 318 55
 220 80 139 215 0 461 +17 55 0 318 312 217 53 461 240 0 306 +17 220 0 318 217 18
3 133 145 218 0 0 +17 306 0 309 61 137 53 312 181 0 460 +17 61 0 309 308 306 59
 460 244 0 458 +17 308 0 309 52 61 56 458 307 0 313 +17 325 0 322 145 79 133 326
 160 0 220 -81 1 382 989 343 276 404 0 384 345 462 83 3 432 .796078431372549 .82
3529411764706 .937254901960784 81 1 404 956 394 276 0 382 401 399 463 81 1 384 9
88 343 292 399 0 387 382 464 83 3 462 .796078431372549 .823529411764706 .9372549
01960784 81 1 399 958 394 292 0 384 404 397 465 83 3 464 .796078431372549 .82352
9411764706 .937254901960784 82 1 465 878707131 82 1 463 878838203 79 255 14 427
 SWEntUnchanged82 1 423 1017839905 82 1 420 1012662561 82 1 418 44958139 82 1 41
4 843121083 82 1 412 843252155 82 1 410 843383227 82 1 405 835191227 81 1 388 96
3 394 287 0 387 397 391 466 82 1 400 889061819 82 1 466 888078779 82 1 396 88847
1995 79 15 393 SDL/TYSA_COLOUR83 3 390 .796078431372549 .823529411764706 .937254
901960784 15 370 3 0 194 364 0 17 194 0 370 126 123 114 467 192 0 468 +17 126 0
 370 123 194 124 128 195 0 469 +17 123 0 370 194 126 110 470 198 0 471 +17 467 0
 315 208 468 110 194 192 0 0 -17 468 0 315 467 120 114 214 212 0 0 -17 120 0 315
 468 168 118 175 178 0 177 +17 214 0 359 117 128 118 468 212 0 0 +15 359 64 0 11
7 354 0 17 117 0 359 469 214 115 177 204 0 211 +17 128 0 359 214 469 114 126 195
 0 194 -17 469 0 359 128 117 124 211 209 0 470 -17 211 0 365 113 470 115 469 209
 0 321 +17 470 0 365 211 471 124 123 198 0 0 -15 365 62 0 113 358 0 17 471 0 365
 470 113 110 208 200 0 467 -17 113 0 365 471 211 111 321 196 0 208 +17 208 0 315
 203 467 111 471 200 0 317 +17 321 0 33 177 317 115 113 196 0 0 -17 177 0 33 175
 321 118 117 204 0 214 -16 178 112 0 ?120 201 187 199 201 201 7 83 3 357 .796078
431372549 .823529411764706 .937254901960784 83 3 347 .796078431372549 .823529411
764706 .937254901960784 17 42 0 333 73 255 32 35 280 0 335 +17 35 0 33 30 38 39
 42 280 0 0 -19 24 75 0 7 0 17 13 S74 4 CI16 index_map_offset0 0 1 dCCZ20 22 3 0
 0 452 449 10 0 0 0 0 0 0 0 0 0 0 0 0 0 0 0 0 0 80 1 5 472 473 8017 0 0 0 0 0 0
 0 0 0 TTTTTTTTTTTTTF3 84 255 11 21 Canard_Half79 13 473 SDL/TYSA_NAME74 20 6 1
 0 0 2 0 0 0 0 0 0 0 0 0 0 0 0 0 0 0 0 0 0 0 1 0 
