**ABCDEFGHIJKLMNOPQRSTUVWXYZabcdefghijklmnopqrstuvwxyz**************************
**PARASOLID !"#$%&'()*+,-./:;<=>?@[\]^_`{|}~0123456789**************************
**PART1;
MC=x86;
MC_MODEL=x86 Family 6 Model 23 Stepping 6, GenuineIntel;
MC_ID=unknown;
OS=Windows_NT;
OS_RELEASE=unknown;
FRU=Parasolid Version 19.1, build 315,  1-13-2009;
APPL=SolidWorks 2009-2009077;
SITE=;
USER=unknown;
FORMAT=text;
GUISE=transmit;
KEY=ControlArm;
FILE=ControlArm.x_t;
DATE=Fri Sep 11 20:41:41 2009;
**PART2;
SCH=SCH_1901315_19008;
USFLD_SIZE=0;
**PART3;
**END_OF_HEADER*****************************************************************
T51 : TRANSMIT FILE created by modeller version 190131523 SCH_1901315_19008_1300
6186 0 12 27 CCCCCCCCCCCCCCCCCCCCCCCA16 index_map_offset0 0 1 dA9 index_map82 0
 A17 node_id_index_map82 0 A20 schema_embedding_map82 0 Z1 1942 2 3 0 0 0 0 1000
.0000000000002048 1e-8 0 4 0 1 0 1 1 5 6 7 8 9 10 11 0 0 0 0 81 255 3 2 1831 12
 1 0 0 0 0 13 14 15 70 11 CI9 list_type0 0 1 uI10 notransmit0 0 1 lCCCDCCDI12 fi
nger_index0 0 1 dI12 finger_block1012 0 CZ3 0 4 T1 0 0 2 20 1 16 16 13 255 5 154
 0 1 0 17 0 0 18 0 51 255 6 1744 0 19 20 0 0 +-.008733507265876351386 .071856600
00000001638 -.01016 -13659239968321314816e-35 0 -1 .00254 -1 0 13659239968321314
816e-35 31 255 7 1500 0 10 21 0 0 +-.003653507265876350157 .04822773171215345254
 -.003809999999999999181 0 0 -1 -1 0 0 .00254 29 255 8 1338 0 11 22 0 -.00389961
5685922149171 .04569968292987440333 -.01016 19 255 9 46 0 1 18 0 23 V16 255 10 1
487 0 ?24 0 25 7 0 0 1 18 255 11 1336 0 26 0 27 8 ?1 17 255 26 0 28 29 30 11 31
 25 0 32 +18 27 1333 0 31 11 33 22 ?1 17 31 0 34 35 36 27 26 25 0 37 -18 33 1330
 0 38 27 39 40 ?1 29 22 1335 0 27 40 8 -.006193507265876351386 .0482277317121534
5254 -.01016 29 40 1332 0 33 41 22 -.006193507265876351386 .07185660000000001638
 -.01016 29 41 1329 0 39 42 40 -.011781507265876350976 .07439660000000003277 -.0
1016 18 39 1327 0 43 33 44 41 ?1 29 42 1326 0 44 45 41 -.008733507265876351386 .
07439660000000003277 -.01016 18 44 1324 0 46 39 47 42 ?1 29 45 1323 0 47 48 42 -
.014321507265876350976 .04826000000000002458 -.01016 18 47 1321 0 49 44 50 45 ?1
 29 48 1320 0 50 51 45 -.014321507265876350976 .07185660000000001638 -.01016 18
 50 1318 0 52 47 53 48 ?1 29 51 1317 0 53 54 48 -.016861507265876353025 .0457200
0000000003277 -.01016 18 53 1315 0 55 50 56 51 ?1 29 54 1314 0 56 57 51 -.016861
507265876353025 .03048000000000003277 -.01016 18 56 1312 0 58 53 59 54 ?1 29 57
 1311 0 59 60 54 -.006193507265876351386 .027972268287846608895 -.01016 18 59 13
09 0 61 56 62 57 ?1 29 60 1308 0 62 63 57 -.006193507265876351386 .0043434000000
00031949 -.01016 18 62 1306 0 64 59 65 60 ?1 29 63 1305 0 65 66 60 -.00389961568
5922147533 .030500317070125654015 -.01016 18 65 1303 0 67 62 68 63 ?1 29 66 1292
 0 68 69 63 -.011781507265876350976 .0018034000000000313345 -.01016 18 68 1290 0
 70 65 71 66 ?1 29 69 1289 0 71 72 66 -.008733507265876351386 .00180340000000003
13345 -.01016 18 71 1287 0 73 68 74 69 ?1 29 72 1258 0 74 75 69 -.01686150726587
6353025 .04572000000000003277 -.003809999999999999181 18 74 1256 0 76 71 77 72 ?
1 29 75 1255 0 77 78 72 -.014321507265876350976 .04826000000000002458 -.00380999
9999999999181 18 77 1253 0 79 74 80 75 ?1 29 78 1252 0 80 81 75 -.01432150726587
6350976 .07185660000000001638 -.003809999999999999181 18 80 1250 0 82 77 83 78 ?
1 29 81 1249 0 83 84 78 -.008733507265876349747 .07439660000000003277 -.00381 18
 83 1247 0 85 80 86 81 ?1 29 84 1246 0 86 87 81 -.011781507265876350976 .0743966
0000000003277 -.003809999999999999181 18 86 1244 0 88 83 89 84 ?1 29 87 1243 0 8
9 90 84 -.006193507265876350566 .04822773171215345254 -.00381 18 89 1241 0 24 86
 91 87 ?1 29 90 1240 0 91 92 87 -.006193507265876350566 .07185660000000001638 -.
00381 18 91 1238 0 93 89 94 90 ?1 29 92 1237 0 94 95 90 -.003899615685922149171
 .04569968292987440333 -.003809999999999999181 18 94 1235 0 96 91 97 92 ?1 29 95
 1234 0 97 98 92 -.003899615685922147533 .030500317070125654015 -.00380999999999
9999181 18 97 1232 0 99 94 100 95 ?1 29 98 1231 0 100 101 95 -.00619350726587635
0566 .027972268287846608895 -.00381 18 100 1229 0 102 97 103 98 ?1 29 101 1228 0
 103 104 98 -.006193507265876350566 .004343400000000031949 -.00381 18 103 1226 0
 105 100 106 101 ?1 29 104 1225 0 106 107 101 -.008733507265876349747 .001803400
0000000313345 -.00381 18 106 1223 0 108 103 109 104 ?1 29 107 1222 0 109 110 104
 -.011781507265876350976 .0018034000000000313345 -.003809999999999999181 18 109
 1220 0 111 106 112 107 ?1 29 110 1219 0 112 113 107 -.016861507265876353025 .03
048000000000003277 -.003809999999999999181 18 112 1217 0 114 109 115 110 ?1 29 1
13 1206 0 115 116 110 -.014321507265876350976 .02794000000000003277 -.0038099999
99999999181 18 115 1204 0 117 112 118 113 ?1 29 116 1203 0 118 119 113 -.0143215
07265876350976 .004343400000000031949 -.003809999999999999181 18 118 1201 0 120
 115 121 116 ?1 29 119 1200 0 121 122 116 -.014321507265876350976 .0279400000000
0003277 -.01016 18 121 1198 0 123 118 124 119 ?1 29 122 1197 0 124 125 119 -.014
321507265876350976 .004343400000000031949 -.01016 18 124 1195 0 126 121 127 122
 ?1 29 125 585 0 127 128 122 -4553649124439118643e-36 .04140200000000003277 -.00
3809999999999999181 18 127 583 0 129 124 130 125 ?1 29 128 582 0 130 131 125 -41
199682554449166335e-37 .03479800000000002867 -.003809999999999999181 18 130 580
 0 132 127 133 128 ?1 29 131 579 0 133 134 128 -4770489558936219648e-36 .0414020
0000000003277 -.01016 18 133 577 0 29 130 135 131 ?1 29 134 576 0 135 136 131 -3
903127820947815629e-36 .034798000000000036865 -.01016 18 135 574 0 137 133 138 1
34 ?1 29 136 409 0 138 139 134 -.013331687796928489472 .03730625000000003277 -.0
1016 18 138 407 0 140 135 141 136 ?1 29 139 387 0 141 142 136 -.0071833267348242
13709 .03889375000000003277 -.01016 18 141 385 0 143 138 144 139 ?1 29 142 223 0
 144 145 139 -.02286 .03889375000000003277 -.01016 18 144 221 0 146 141 147 142
 ?1 29 145 116 0 148 149 142 -.02286 .03048000000000003277 -.01016 18 148 101 0
 150 151 152 145 ?1 29 149 117 0 152 153 145 -.02286 .04572000000000003277 -.010
16 18 152 102 0 154 148 155 149 ?1 29 153 33 0 147 156 149 -.02286 .030480000000
00003277 -.003809999999999999181 18 147 31 0 157 144 151 153 ?1 29 156 30 0 151
 158 153 -.02286 .04572000000000003277 -.003809999999999999181 18 151 28 0 159 1
47 148 156 ?1 29 158 348 0 160 161 156 -.00581250726587635712 .03730625000000003
277 -.003809999999999999181 18 160 301 0 162 163 164 158 ?1 29 161 349 0 164 165
 158 -.02286 .037306250000000024575 -.003809999999999999181 18 164 303 0 166 160
 167 161 ?1 29 165 350 0 167 168 161 -.02286 .03889375000000003277 -.00380999999
9999999181 18 167 305 0 169 164 170 165 ?1 29 168 351 0 170 171 165 -.0058125072
6587635712 .03889375000000003277 -.003809999999999999181 18 170 299 0 172 167 17
3 168 ?1 29 171 352 0 155 174 168 -.00581250726587635712 .03730625000000003277 -
.01016 18 155 298 0 175 152 176 171 ?1 29 174 353 0 176 177 171 -.02286 .0373062
50000000024575 -.01016 18 176 300 0 178 155 163 174 ?1 29 177 355 0 163 179 174
 -.00581250726587635712 .03889375000000003277 -.01016 18 163 304 0 180 176 160 1
77 ?1 29 179 527 0 173 181 177 -.00718332673482421207 .03730625000000003277 -.01
016 18 173 474 0 182 170 183 179 ?1 29 181 529 0 183 184 179 -.01333168779692848
9472 .03889375000000003277 -.01016 18 183 479 0 185 173 186 181 ?1 29 184 531 0
 186 187 181 -.00718332673482421207 .03730625000000003277 -.00380999999999999918
1 18 186 472 0 188 183 189 184 ?1 29 187 532 0 189 190 184 -.0133316877969284894
72 .03730625000000003277 -.003809999999999999181 18 189 478 0 191 186 192 187 ?1
 29 190 533 0 192 193 187 -.013331687796928489472 .03889375000000003277 -.003809
999999999999181 18 192 476 0 194 189 195 190 ?1 29 193 534 0 195 0 190 -.0071833
26734824213709 .03889375000000003277 -.003809999999999999181 18 195 475 0 196 19
2 0 193 ?1 17 196 0 197 194 143 195 198 199 0 200 -15 255 197 491 0 143 201 0 17
 194 0 197 185 196 192 200 202 0 203 +17 143 0 197 196 185 141 204 205 0 198 -17
 198 0 206 207 208 141 196 199 0 209 +16 199 391 0 ?198 210 211 212 0 0 1 17 200
 0 213 214 215 195 194 202 0 208 -15 213 3 0 216 217 0 17 214 0 213 218 200 170
 208 219 0 0 -17 215 0 213 200 220 192 169 221 0 0 -16 202 457 0 ?194 222 223 22
4 223 223 1 17 208 0 206 198 172 195 214 219 0 0 +15 206 321 0 208 225 0 17 172
 0 206 208 207 170 180 226 0 227 +16 219 289 0 ?208 228 221 229 221 221 1 16 228
 405 0 ?162 230 219 231 230 230 1 16 221 383 0 ?169 219 232 229 219 219 1 30 255
 229 342 0 219 233 231 0 +-.00581250726587635712 .03889375000000003277 -.0038099
99999999999181 -1 -15263741446017253375e-35 0 30 233 343 0 232 234 229 0 +-.0058
1250726587635712 .03730625000000003277 -.003809999999999999181 0 1 0 30 231 340
 0 230 229 235 0 +-.00581250726587635712 .03730625000000003277 -.003809999999999
999181 1 3052748289203450675e-34 0 16 230 295 0 ?236 237 228 231 228 228 1 30 23
5 339 0 238 231 239 0 +-.00581250726587635712 .03730625000000003277 -.01016 0 0
 1 16 238 277 0 ?240 241 242 235 0 0 1 30 239 338 0 242 235 243 0 +-.02286 .0373
06250000000024575 -.01016 0 0 1 16 242 281 0 ?166 238 244 239 0 0 1 30 243 337 0
 244 239 245 0 +-.02286 .03889375000000003277 -.01016 0 0 1 16 244 285 0 ?246 24
2 226 243 0 0 1 30 245 336 0 226 243 247 0 +-.00581250726587635712 .038893750000
00003277 -.01016 0 0 1 16 226 273 0 ?172 244 248 245 0 0 1 30 247 5 0 249 245 25
0 0 +-.007620000000000004915 .04572000000000003277 -.003809999999999999181 -1 0
 0 16 249 1257 0 ?159 251 252 247 0 0 1 30 250 11 0 253 247 254 0 +-.02286 .0304
8000000000003277 -.003809999999999999181 0 -1 0 16 253 10 0 ?220 255 251 250 251
 251 1 30 254 14 0 255 250 256 0 +-.02286 .03048000000000003277 -.00380999999999
9999181 1 0 0 16 255 13 0 ?257 258 253 254 0 0 1 30 256 20 0 258 254 259 0 +-433
68086899420176385e-37 .03810000000000003277 -.003809999999999999181 -85370249802
00823194e-35 1 0 16 258 581 0 ?260 261 255 256 0 0 1 30 259 110 0 241 256 262 0
 +-.02286 .04572000000000003277 -.01016 -1 0 0 16 241 1316 0 ?154 263 238 259 0
 0 1 30 262 109 0 264 259 265 0 +-.02286 .03048000000000003277 -.01016 0 -1 0 16
 264 85 0 ?266 267 263 262 263 263 1 30 265 107 0 267 262 268 0 +-.0076200000000
00004915 .03048000000000003277 -.01016 1 0 0 16 267 77 0 ?269 252 264 265 0 0 1
 30 268 105 0 252 265 270 0 +-5421010862427521843e-36 .04572000000000003277 -.01
016 -14228374967001368576e-35 1 0 16 252 575 0 ?271 249 267 268 0 0 1 30 270 144
 0 261 268 272 0 +-.02286 .03048000000000003277 -.003809999999999999181 0 0 -1 1
6 261 123 0 ?273 211 258 270 0 0 1 30 272 145 0 211 270 212 0 +-.02286 .04572000
000000003277 -.003809999999999999181 0 0 -1 16 211 124 0 ?274 199 261 272 0 0 1
 30 212 393 0 199 272 275 0 --.007183326734824213709 .03889375000000003277 -.010
16 0 0 1 30 275 398 0 210 212 276 0 +-.013331687796928489472 .038893750000000032
77 -.01016 0 0 1 16 210 396 0 ?203 277 199 275 0 0 1 30 276 588 0 277 275 278 0
 --4770489558936219648e-36 .04140200000000003277 -.003809999999999999181 0 0 -1
 16 277 586 0 ?129 279 210 276 0 0 1 30 278 594 0 279 276 280 0 +-39031278209478
15629e-36 .03479800000000002867 -.003809999999999999181 0 0 -1 16 279 592 0 ?281
 282 277 278 0 0 1 31 280 606 0 282 278 283 0 +-.0043180000000000057345 .0414020
0000000003277 -.01016 0 0 -1 -1 0 0 .004318 16 282 1337 0 ?29 284 279 280 0 0 1
 31 283 611 0 284 280 285 0 +-.004318000000000003277 .03479800000000002867 -.010
16 0 0 -1 -1 0 0 .004318 16 284 609 0 ?286 287 282 283 0 0 1 31 285 628 0 287 28
3 288 0 --.0043180000000000057345 .04140200000000003277 -.003809999999999999181
 0 0 -1 -1 0 0 .004318 16 287 626 0 ?289 290 284 285 0 0 1 31 288 633 0 290 285
 291 0 --.004318000000000003277 .03479800000000002867 -.003809999999999999181 0
 0 -1 -1 0 0 .004318 16 290 1233 0 ?132 292 287 288 0 0 1 31 291 711 0 293 288 2
94 0 +-.019812000000000004095 .037306250000000024575 -.006985 305274828920345026
55e-35 -1 0 1 30527482892034502655e-35 0 .0014731999999999922176 16 293 740 0 ?2
95 296 297 291 0 0 1 30 294 1209 0 292 291 298 0 --.014321507265876350976 .02794
000000000003277 -.003809999999999999181 0 0 1 16 292 1207 0 ?123 299 290 294 0 0
 1 30 298 1214 0 299 294 300 0 +-.014321507265876350976 .004343400000000031949 -
.003809999999999999181 0 0 1 16 299 1212 0 ?301 302 292 298 0 0 1 31 300 1261 0
 302 298 303 0 --.008733507265876349747 .07185660000000001638 -.0038099999999999
99181 0 0 -1 -1 0 0 .00254 16 302 1259 0 ?85 304 299 300 0 0 1 31 303 1268 0 304
 300 305 0 --.011781507265876350976 .07185660000000001638 -.00380999999999999918
1 0 0 -1 -1 0 0 .00254 16 304 1266 0 ?82 306 302 303 0 0 1 31 305 1275 0 306 303
 307 0 --.008733507265876349747 .004343400000000031949 -.003809999999999999181 0
 0 -1 -1 0 0 .00254 16 306 1273 0 ?105 308 304 305 0 0 1 31 307 1282 0 308 305 3
09 0 --.011781507265876350976 .004343400000000031949 -.003809999999999999181 0 0
 -1 -1 0 0 .00254 16 308 1280 0 ?111 310 306 307 0 0 1 30 309 1295 0 310 307 311
 0 --.008733507265876349747 .0018034000000000313345 -.00381 -1365923996832131481
6e-35 0 -1 16 310 1293 0 ?108 312 308 309 0 0 1 30 311 1300 0 312 309 313 0 --.0
11781507265876350976 .0018034000000000313345 -.01016 0 0 1 16 312 1298 0 ?70 314
 310 311 0 0 1 31 313 1341 0 314 311 315 0 +-.008733507265876351386 .07185660000
000001638 -.01016 0 0 -1 -1 0 0 .00254 16 314 1339 0 ?38 316 312 313 0 0 1 31 31
5 1350 0 316 313 317 0 +-.011781507265876350976 .07185660000000001638 -.01016 0
 0 -1 -1 0 0 .00254 16 316 1348 0 ?43 318 314 315 0 0 1 31 317 1359 0 318 315 31
9 0 +-.008733507265876351386 .004343400000000031949 -.01016 0 0 -1 -1 0 0 .00254
 16 318 1357 0 ?73 320 316 317 0 0 1 31 319 1368 0 320 317 321 0 +-.011781507265
876350976 .004343400000000031949 -.01016 0 0 -1 -1 0 0 .00254 16 320 1366 0 ?126
 322 318 319 0 0 1 30 321 1377 0 322 319 323 0 +-.016861507265876353025 .0304800
0000000003277 -.003809999999999999181 0 0 1 16 322 1375 0 ?324 325 320 321 0 0 1
 30 323 1383 0 325 321 326 0 +-.003899615685922147533 .030500317070125654015 -.0
03809999999999999181 0 0 -1 16 325 1381 0 ?327 328 322 323 0 0 1 30 326 1388 0 3
28 323 329 0 +-.006193507265876351386 .004343400000000031949 -.01016 -1365923996
8321314816e-35 0 -1 16 328 1386 0 ?330 331 325 326 0 0 1 30 329 1393 0 331 326 3
32 0 +-.006193507265876350566 .027972268287846608895 -.003809999999999999181 136
59239968321314816e-35 0 1 16 331 1391 0 ?102 333 328 329 0 0 1 30 332 1398 0 333
 329 334 0 --.014321507265876350976 .07185660000000001638 -.00380999999999999918
1 0 0 1 16 333 1396 0 ?52 335 331 332 0 0 1 30 334 1403 0 335 332 336 0 +-.01432
1507265876350976 .04826000000000002458 -.003809999999999999181 0 0 1 16 335 1401
 0 ?337 338 333 334 0 0 1 30 336 1408 0 338 334 339 0 --.016861507265876353025 .
04572000000000003277 -.01016 0 0 1 16 338 1406 0 ?55 340 335 336 0 0 1 30 339 14
14 0 340 336 341 0 --.006193507265876351386 .07185660000000001638 -.01016 -13659
239968321314816e-35 0 -1 16 340 1412 0 ?93 342 338 339 0 0 1 30 341 1419 0 342 3
39 343 0 +-.006193507265876351386 .04822773171215345254 -.01016 -136592399683213
14816e-35 0 -1 16 342 1417 0 ?37 344 340 341 0 0 1 30 343 1424 0 344 341 345 0 -
-.003899615685922149171 .04569968292987440333 -.003809999999999999181 0 0 -1 16
 344 1422 0 ?96 346 342 343 0 0 1 30 345 1429 0 346 343 347 0 +-.008733507265876
351386 .07439660000000003277 -.01016 -13659239968321314816e-35 0 -1 16 346 1427
 0 ?348 349 344 345 0 0 1 30 347 1434 0 349 345 350 0 +-.011781507265876350976 .
07439660000000003277 -.01016 0 0 1 16 349 1432 0 ?351 352 346 347 0 0 1 31 350 1
493 0 352 347 353 0 +-.016861507265876353025 .02794000000000003277 -.00380999999
9999999181 0 0 -1 -1 0 0 .00254 16 352 1437 0 ?117 354 349 350 0 0 1 31 353 1494
 0 354 350 355 0 --.016861507265876353025 .02794000000000003277 -.01016 0 0 -1 -
1 0 0 .00254 16 354 1443 0 ?58 356 352 353 0 0 1 31 355 1495 0 356 353 357 0 --.
003653507265876350157 .027972268287846608895 -.01016 0 0 -1 -1 0 0 .00254 16 356
 1451 0 ?61 358 354 355 0 0 1 31 357 1496 0 358 355 359 0 +-.0036535072658763501
57 .027972268287846608895 -.003809999999999999181 0 0 -1 -1 0 0 .00254 16 358 14
59 0 ?99 360 356 357 0 0 1 31 359 1497 0 360 357 361 0 +-.016861507265876353025
 .04826000000000002458 -.003809999999999999181 0 0 -1 -1 0 0 .00254 16 360 1465
 0 ?76 362 358 359 0 0 1 31 361 1498 0 362 359 21 0 --.016861507265876353025 .04
826000000000002458 -.01016 0 0 -1 -1 0 0 .00254 16 362 1471 0 ?49 25 360 361 0 0
 1 31 21 1499 0 25 361 7 0 --.003653507265876350157 .04822773171215345254 -.0101
6 0 0 -1 -1 0 0 .00254 16 25 1479 0 ?26 10 362 21 0 0 1 17 49 0 28 363 364 47 36
5 362 0 366 +15 28 427 0 367 368 0 17 363 0 28 43 49 50 366 369 0 370 -17 364 0
 28 49 371 53 154 241 0 365 -17 365 0 372 373 374 53 49 362 0 0 -17 366 0 375 33
7 52 47 363 369 0 374 +15 375 862 0 366 376 0 17 337 0 375 377 366 77 374 335 0
 378 +17 52 0 375 366 377 50 379 333 0 363 +16 369 1319 0 ?366 380 381 382 0 0 1
 17 374 0 372 365 79 47 337 335 0 0 -15 372 1670 0 365 383 0 17 79 0 372 374 373
 77 76 360 0 337 -17 373 0 372 79 365 74 55 338 0 0 -17 76 0 213 159 378 74 79 3
60 0 384 +17 159 0 213 220 76 151 384 249 0 385 +17 378 0 213 76 82 77 377 381 0
 0 +17 384 0 386 55 385 74 159 249 0 373 -15 386 813 0 384 17 0 17 55 0 386 154
 384 53 373 338 0 364 +17 385 0 386 384 154 151 274 211 0 387 -17 154 0 386 385
 55 152 364 241 0 274 +17 274 0 388 266 387 152 385 211 0 371 +17 387 0 388 274
 246 151 220 253 0 0 -15 388 134 0 266 389 0 17 246 0 388 387 266 167 390 244 0
 220 +17 220 0 213 215 159 167 387 253 0 0 +17 266 0 388 246 274 144 371 264 0 0
 +17 390 0 391 392 169 144 246 244 0 266 -15 391 392 0 392 393 0 17 392 0 391 20
3 390 183 146 394 0 0 -17 169 0 391 390 203 167 215 221 0 246 +17 203 0 391 169
 392 192 185 210 0 215 +17 185 0 197 143 194 183 203 210 0 204 -17 204 0 28 146
 209 183 143 205 0 392 +17 146 0 28 371 204 144 392 394 0 390 +17 209 0 28 204 3
95 141 207 396 0 0 +16 205 448 0 ?204 397 222 398 222 222 1 16 397 444 0 ?399 40
0 205 401 0 0 1 16 222 440 0 ?402 205 202 398 205 205 1 31 398 526 0 205 403 224
 0 +-.010257507265876350976 .03810000000000003277 -.01016 0 0 1 1 0 0 .003175000
000000001229 31 403 770 0 296 404 398 0 +-.019812000000000004095 .03889375000000
003277 -.006985 -1526374144601725133e-34 1 0 -1 -1526374144601725133e-34 0 .0014
731999999999922176 31 224 525 0 202 398 401 0 +-.010257507265876350976 .03810000
000000003277 -.003809999999999999181 0 0 1 1 0 0 .003175000000000001229 30 401 5
20 0 397 224 405 0 --.013331687796928489472 .03730625000000003277 -.01016 0 0 1
 30 405 519 0 400 401 406 0 +-.00718332673482421207 .03730625000000003277 -.0101
6 0 0 1 16 400 443 0 ?407 232 397 405 0 0 1 30 406 347 0 237 405 408 0 +-.005812
50726587635712 .03730625000000003277 -.01016 0 1 0 16 237 270 0 ?395 394 230 406
 0 0 1 30 408 346 0 396 406 234 0 +-.00581250726587635712 .03889375000000003277
 -.01016 -1 -15263741446017253375e-35 0 16 396 282 0 ?209 409 394 408 394 394 1
 30 234 344 0 248 408 233 0 +-.00581250726587635712 .03730625000000003277 -.0101
6 1 3052748289203450675e-34 0 16 248 274 0 ?410 226 409 234 409 409 1 17 410 0 2
8 402 411 138 178 248 0 0 +16 409 411 0 ?175 248 396 234 248 248 1 17 175 0 28 3
95 402 155 412 409 0 413 +17 395 0 28 209 175 163 414 237 0 0 +17 402 0 28 175 4
10 173 140 222 0 412 +17 412 0 415 407 413 173 175 409 0 0 -17 413 0 415 412 162
 155 240 238 0 414 -15 415 414 0 412 416 0 17 162 0 415 413 407 160 417 228 0 24
0 +17 240 0 418 227 414 160 413 238 0 218 +17 414 0 418 240 180 155 395 237 0 0
 -15 418 309 0 227 419 0 17 180 0 418 414 227 163 172 226 0 207 -17 227 0 418 18
0 240 170 218 232 0 214 +17 207 0 206 172 198 163 209 396 0 395 -17 218 0 213 41
7 214 160 227 232 0 0 -16 232 286 0 ?227 221 400 233 0 0 1 17 417 0 213 420 218
 186 162 228 0 0 -17 420 0 213 421 417 189 188 223 0 236 -17 421 0 213 157 420 1
64 236 230 0 422 -17 188 0 423 182 191 186 420 223 0 407 +16 223 453 0 ?188 202
 296 224 202 202 1 17 236 0 424 399 166 189 421 230 0 0 +15 424 313 0 236 425 0
 17 399 0 424 178 236 138 191 397 0 410 +17 166 0 424 236 178 164 426 242 0 421
 +17 178 0 424 166 399 176 410 248 0 426 -17 426 0 427 150 422 176 166 242 0 411
 -15 427 260 0 422 428 0 17 150 0 427 429 426 148 411 263 0 430 +17 422 0 427 42
6 429 164 157 251 0 0 -17 411 0 28 410 430 176 150 263 0 0 -17 430 0 28 411 58 1
48 269 267 0 273 -16 263 225 0 ?150 264 241 262 264 264 1 17 58 0 28 430 431 56
 432 354 0 269 +17 269 0 433 324 273 56 430 267 0 434 +17 273 0 433 269 435 148
 429 261 0 0 +15 433 130 0 269 436 0 17 435 0 433 273 324 147 257 255 0 0 -17 42
9 0 427 422 150 147 273 261 0 435 -17 324 0 433 435 269 112 434 322 0 257 +17 25
7 0 213 117 157 112 435 255 0 0 +17 117 0 213 216 257 115 114 352 0 437 +17 157
 0 213 257 421 147 422 251 0 429 +16 251 244 0 ?157 253 249 250 253 253 1 17 216
 0 213 111 117 118 437 438 0 0 -17 114 0 439 434 440 112 117 352 0 324 -17 437 0
 441 123 301 115 216 438 0 440 +15 441 1080 0 442 443 0 17 123 0 441 442 437 121
 440 292 0 431 +17 301 0 441 437 442 118 444 299 0 216 +16 438 1202 0 ?437 445 4
46 447 0 0 1 17 440 0 439 114 432 115 123 292 0 0 -15 439 1607 0 432 448 0 17 43
2 0 439 440 434 121 58 354 0 0 -17 434 0 439 432 114 56 324 322 0 0 -14 255 448
 1606 449 ?450 451 439 5 452 -0 0 450 451 23 81 1 449 1859 453 448 0 0 454 455 4
56 14 450 1627 455 ?457 448 458 5 459 -0 0 457 448 23 14 451 1585 454 ?448 460 4
61 5 462 +0 0 448 460 23 51 452 1618 0 448 462 459 0 +-.016861507265876353025 .0
2794000000000003277 -.003809999999999999181 0 0 1 .00254 1 0 0 13 23 47 0 0 0 0
 0 0 9 17 14 17 815 463 ?416 0 464 5 465 -0 0 416 0 23 81 1 463 1832 453 17 0 0
 0 466 467 14 416 415 466 ?393 17 415 5 468 -425 425 393 17 23 15 464 724 0 469
 17 386 50 255 465 152 0 17 470 471 0 +-.02286 .04572000000000003277 -.003809999
999999999181 0 -1 0 0 0 -1 50 470 151 0 389 472 465 0 +-.02286 .0304800000000000
3277 -.003809999999999999181 1 0 0 0 0 -1 51 471 665 0 473 465 474 0 +-.00431800
0000000003277 .03479800000000002867 -.003809999999999999181 0 0 -1 .004318 -1 0
 0 14 473 653 475 ?476 477 478 5 471 +0 0 476 477 23 51 474 686 0 476 471 462 0
 +-.0043180000000000057345 .04140200000000003277 -.003809999999999999181 0 0 -1
 .004318 -1 0 0 14 476 674 479 ?480 473 481 5 474 +0 0 480 473 23 51 462 1597 0
 451 474 452 0 +-.011781507265876350976 .004343400000000031949 -.003809999999999
999181 0 0 -1 .00254 -1 0 0 81 1 479 1847 453 476 0 0 475 482 483 14 480 747 482
 ?484 476 485 5 486 -484 484 484 476 23 15 481 675 0 32 476 0 17 32 0 481 96 487
 11 29 282 0 36 -17 96 0 481 488 32 94 36 344 0 289 +17 487 0 481 32 488 133 129
 277 0 0 -17 29 0 28 489 26 133 32 282 0 271 +17 36 0 34 31 490 11 96 344 0 0 -1
5 34 1691 0 490 491 0 17 490 0 34 36 35 94 24 10 0 0 -17 35 0 34 490 31 89 37 34
2 0 0 -17 24 0 213 492 289 89 490 10 0 493 +17 492 0 213 85 24 91 493 494 0 495
 -17 289 0 213 24 260 94 488 287 0 490 +17 493 0 496 37 93 89 492 494 0 35 +15 4
96 870 0 493 497 0 17 37 0 496 498 493 27 35 342 0 30 +17 93 0 496 493 498 91 49
9 340 0 492 +16 494 1239 0 ?493 381 500 501 0 0 1 16 381 1251 0 ?378 369 494 502
 0 0 1 16 500 1331 0 ?30 494 503 504 0 0 1 30 501 892 0 494 504 502 0 +-.0061935
07265876350566 .07439660000000003277 -.00381 0 -1 0 30 504 893 0 500 505 501 0 +
-.006193507265876351386 .07439660000000003277 -.01016 0 -1 0 30 502 891 0 381 50
1 382 0 +-.014321507265876350976 .07439660000000003277 -.003809999999999999181 0
 -1 0 30 382 890 0 369 502 506 0 +-.014321507265876350976 .07439660000000003277
 -.01016 0 -1 0 31 506 772 0 380 382 404 0 +-.019812000000000004095 .03048000000
000002867 -.006985 0 -1 0 0 0 -1 .0014731999999999870976 16 380 741 0 ?507 297 3
69 506 0 0 1 31 404 771 0 297 506 403 0 +-.019812000000000004095 .04572000000000
002458 -.006985 0 -1 0 0 0 -1 .0014731999999999973376 16 297 738 0 ?469 293 380
 404 0 0 1 17 469 0 464 469 469 0 508 297 0 0 +17 508 0 509 508 508 0 469 297 0
 0 -15 509 745 0 508 484 510 14 484 742 511 ?376 480 509 5 486 -480 480 376 480
 23 15 510 746 0 512 484 0 17 512 0 510 512 512 0 513 296 0 0 -17 513 0 514 513
 513 0 512 296 0 0 +16 296 739 0 ?513 223 293 403 0 0 1 15 514 732 0 513 393 391
 14 393 394 515 ?428 416 514 5 516 -225 225 428 416 23 81 1 515 1834 453 393 0 0
 466 517 518 14 428 262 517 ?389 393 427 5 470 -389 389 389 393 23 50 516 331 0
 225 468 519 0 +-.00581250726587635712 .03889375000000003277 -.01016 -1526374144
601725133e-34 1 0 -1 -1526374144601725133e-34 0 14 225 318 520 ?201 425 206 5 51
6 -393 393 201 425 23 81 1 520 1843 453 225 0 0 521 522 523 14 201 488 522 ?477
 225 197 5 524 -477 477 477 225 23 14 425 310 521 ?225 419 525 5 468 -416 416 22
5 419 23 81 1 521 1842 453 425 0 0 526 520 527 14 419 306 526 ?425 368 418 5 519
 -0 0 425 368 23 15 525 709 0 295 425 424 50 468 333 0 425 524 516 0 +-.00581250
726587635712 .03730625000000003277 -.01016 30527482892034502655e-35 -1 0 1 30527
482892034502655e-35 0 51 524 516 0 477 486 468 0 +-.010257507265876350976 .03810
000000000003277 -.01016 0 0 1 .003175000000000001229 1 0 0 14 477 480 528 ?473 2
01 423 5 524 -201 201 473 201 23 51 486 769 0 484 529 524 0 +-.01981200000000000
4095 .03048000000000003277 -.006985 0 -1 0 .0014731999999999922176 0 0 -1 50 529
 884 0 376 530 486 0 +-.014321507265876350976 .07439660000000003277 -.0038099999
99999999181 1 0 0 0 0 -1 14 376 859 531 ?497 484 375 5 529 -0 0 497 484 23 50 53
0 886 0 497 532 529 0 +-.006193507265876351386 .07439660000000003277 -.01016 -1
 0 13659239968321314816e-35 13659239968321314816e-35 0 1 14 497 867 533 ?534 376
 496 5 530 -0 0 534 376 23 50 532 889 0 534 535 530 0 +-.006193507265876351386 .
07439660000000003277 -.01016 0 -1 0 0 0 -1 14 534 876 536 ?537 497 538 5 532 -0
 0 537 497 23 51 535 989 0 537 539 532 0 +-.010257507265876350976 .0698500000000
0002458 -.01016 0 0 -1 .0008889999999999981978 -1 0 0 14 537 980 540 ?541 534 54
2 5 535 -0 0 541 534 23 50 539 1090 0 541 543 535 0 +-.006193507265876351386 .00
18034000000000313345 -.01016 1 0 -13659239968321314816e-35 -13659239968321314816
e-35 0 -1 14 541 1069 544 ?443 537 545 5 539 +0 0 443 537 23 50 543 1092 0 443 5
46 539 0 +-.014321507265876350976 .0018034000000000313345 -.00380999999999999918
1 -1 0 0 0 0 1 14 443 1077 547 ?548 541 441 5 543 +0 0 548 541 23 50 546 1094 0
 548 549 543 0 +-.006193507265876351386 .0018034000000000313345 -.01016 0 1 0 0
 0 -1 14 548 1081 550 ?460 443 551 5 546 -0 0 460 443 23 51 549 1171 0 460 0 546
 0 +-.010257507265876350976 .006350000000000029491 -.01016 0 0 -1 .0008889999999
999981978 -1 0 0 14 460 1162 552 ?451 548 553 5 549 -0 0 451 548 23 81 1 552 185
7 453 460 0 0 550 454 554 15 553 1165 0 555 460 556 17 555 0 553 555 555 0 557 5
58 0 0 -15 556 1166 0 559 460 0 17 559 0 556 559 559 0 560 561 0 0 +17 560 0 562
 560 560 0 559 561 0 0 -16 561 1150 0 ?559 558 0 563 0 0 1 16 558 1151 0 ?557 56
4 561 565 0 0 1 31 563 1173 0 561 0 565 0 +-.010257507265876350976 .006350000000
000029491 -.01016 0 0 -1 -1 0 0 .000888999999999999017 31 565 1172 0 558 563 566
 0 +-.010257507265876350976 .006350000000000029491 -.003809999999999999181 0 0 -
1 -1 0 0 .0008889999999999973786 30 566 1106 0 564 565 567 0 +-.0143215072658763
50976 .0018034000000000313345 -.01016 -1 0 7654042494670972518e-36 16 564 1288 0
 ?367 568 558 566 0 0 1 30 567 1104 0 568 566 569 0 +-.006193507265876350566 .00
18034000000000313345 -.00381 1 0 -10671281225251028992e-35 16 568 1221 0 ?570 44
6 564 567 0 0 1 30 569 1098 0 446 567 447 0 +-.014321507265876350976 .0018034000
000000313345 -.01016 0 1 0 16 446 1196 0 ?431 438 568 569 0 0 1 30 447 1097 0 43
8 569 571 0 +-.014321507265876350976 .0018034000000000313345 -.00380999999999999
9181 0 1 0 30 571 1096 0 445 447 572 0 +-.006193507265876350566 .001803400000000
0313345 -.00381 0 1 0 16 445 1227 0 ?573 574 438 571 0 0 1 30 572 1095 0 574 571
 575 0 +-.006193507265876351386 .0018034000000000313345 -.01016 0 1 0 16 574 130
7 0 ?576 577 445 572 0 0 1 31 575 991 0 577 572 578 0 +-.010257507265876350976 .
06985000000000002458 -.01016 0 0 -1 -1 0 0 .000888999999999999017 16 577 968 0 ?
579 580 574 575 0 0 1 31 578 990 0 580 575 581 0 +-.010257507265876350976 .06985
000000000002458 -.003809999999999999181 0 0 -1 -1 0 0 .0008889999999999973786 16
 580 969 0 ?582 583 577 578 0 0 1 30 581 901 0 583 578 505 0 +-.0143215072658763
50976 .07439660000000003277 -.01016 -1 0 7654042494670972518e-36 16 583 1325 0 ?
584 503 580 581 0 0 1 30 505 899 0 503 581 504 0 +-.006193507265876350566 .07439
660000000003277 -.00381 1 0 -10671281225251028992e-35 16 503 1245 0 ?585 500 583
 505 0 0 1 17 585 0 538 348 351 83 586 503 0 587 +15 538 878 0 584 534 0 17 348
 0 538 584 585 44 587 346 0 588 +17 351 0 538 585 584 86 589 349 0 586 +17 586 0
 213 82 85 86 585 503 0 0 -17 587 0 590 495 46 83 348 346 0 0 -15 590 1733 0 495
 19 0 17 495 0 590 499 587 91 85 302 0 0 -17 46 0 590 587 499 44 38 314 0 348 -1
7 499 0 590 46 495 33 93 340 0 0 -17 38 0 28 30 588 33 46 314 0 498 +17 30 0 28
 26 38 27 498 500 0 0 +17 588 0 28 38 43 44 584 583 0 0 -17 498 0 496 93 37 33 3
0 500 0 499 -17 43 0 28 588 363 39 370 316 0 584 +17 584 0 538 351 348 39 588 58
3 0 589 +17 589 0 591 370 88 39 351 349 0 0 -15 591 1712 0 370 592 0 17 370 0 59
1 379 589 50 43 316 0 0 -17 88 0 591 589 379 86 82 304 0 351 -17 379 0 591 88 37
0 80 52 333 0 0 -17 82 0 213 378 586 80 88 304 0 377 +17 377 0 375 52 337 80 378
 381 0 379 -14 592 1711 593 ?19 491 591 5 20 +0 0 19 491 23 81 1 593 1864 453 59
2 0 0 594 595 596 14 19 1732 595 ?0 592 590 5 6 +0 0 0 592 23 14 491 1690 594 ?5
92 383 34 5 597 -0 0 592 383 23 51 20 1723 0 592 597 6 0 +-.01178150726587635097
6 .07185660000000001638 -.01016 0 0 1 .00254 1 0 0 51 597 1702 0 491 598 20 0 +-
.003653507265876350157 .04822773171215345254 -.003809999999999999181 0 0 -1 .002
54 -1 0 0 51 598 1681 0 383 599 597 0 +-.016861507265876353025 .0482600000000000
2458 -.003809999999999999181 0 0 -1 .00254 -1 0 0 14 383 1669 600 ?491 457 372 5
 598 -0 0 491 457 23 51 599 1660 0 457 459 598 0 +-.008733507265876351386 .00434
3400000000031949 -.01016 13659239968321314816e-35 0 1 .00254 1 0 -13659239968321
314816e-35 14 457 1648 601 ?383 450 602 5 599 +0 0 383 450 23 51 459 1639 0 450
 452 599 0 +-.003653507265876350157 .027972268287846608895 -.0038099999999999991
81 0 0 -1 .00254 -1 0 0 81 1 601 1861 453 457 0 0 455 600 603 15 602 1649 0 604
 457 0 17 604 0 602 605 606 106 105 306 0 0 -17 605 0 602 64 604 71 108 310 0 0
 -17 606 0 602 604 64 103 330 328 0 0 -17 105 0 213 573 570 103 604 306 0 607 +1
7 573 0 213 99 105 100 607 445 0 608 +17 570 0 213 105 111 106 609 568 0 604 +17
 607 0 545 330 102 103 573 445 0 606 -15 545 1072 0 576 541 0 17 330 0 545 576 6
07 62 606 328 0 610 +17 102 0 545 607 576 100 611 331 0 573 +17 576 0 545 102 33
0 59 610 574 0 611 +17 611 0 458 67 608 59 102 331 0 0 -15 458 1628 0 608 450 0
 17 67 0 458 612 611 65 61 356 0 327 -17 608 0 458 611 612 100 99 358 0 0 -17 61
2 0 458 608 67 97 327 325 0 0 -17 99 0 213 132 573 97 608 358 0 613 +17 132 0 21
3 260 99 130 613 290 0 614 +17 613 0 478 327 615 97 132 290 0 612 -15 478 654 0
 613 473 0 17 327 0 478 137 613 65 612 325 0 286 +17 615 0 478 613 137 130 281 2
79 0 0 -17 137 0 478 615 327 135 286 284 0 281 -17 281 0 616 271 614 135 615 279
 0 489 +15 616 126 0 614 617 0 17 271 0 616 129 281 133 489 252 0 487 +17 614 0
 616 281 129 130 260 258 0 615 -17 489 0 28 286 29 135 271 252 0 0 -17 286 0 28
 61 489 65 137 284 0 0 +17 61 0 28 610 286 59 67 356 0 576 +17 610 0 28 73 61 62
 576 574 0 0 -17 73 0 28 367 610 71 64 318 0 618 +17 367 0 28 126 73 68 618 564
 0 619 +17 64 0 602 606 605 62 73 318 0 330 -17 618 0 551 108 70 71 367 564 0 60
5 -15 551 1083 0 609 548 0 17 108 0 551 609 618 106 605 310 0 570 +17 70 0 551 6
18 609 68 620 312 0 367 +17 609 0 551 70 108 109 570 568 0 620 -17 620 0 461 120
 619 109 70 312 0 0 -15 461 1586 0 619 451 0 17 120 0 461 444 620 118 111 308 0
 301 -17 619 0 461 620 444 68 126 320 0 0 -17 444 0 461 619 120 124 301 299 0 0
 -17 126 0 28 431 367 124 619 320 0 442 +17 431 0 28 58 126 121 442 446 0 432 +1
7 442 0 441 301 123 124 431 446 0 444 -17 111 0 213 570 216 109 120 308 0 609 +1
7 129 0 616 614 271 127 487 277 0 260 +17 260 0 213 289 132 127 614 258 0 488 +1
7 488 0 481 487 96 127 289 287 0 0 -14 617 127 621 ?217 436 616 5 622 -0 0 217 4
36 23 81 1 621 1838 453 617 0 0 623 624 625 14 217 1 624 ?368 617 626 5 627 -0 0
 368 617 23 14 436 131 623 ?617 389 628 5 472 -0 0 617 389 23 50 622 147 0 617 6
29 472 0 +-5421010862427521843e-36 .04572000000000003277 -.003809999999999999181
 -1 -14228374967001372672e-35 0 14228374967001372672e-35 -1 0 50 629 104 0 368 6
27 622 0 +-5421010862427521843e-36 .04572000000000003277 -.01016 0 0 -1 -1 0 0 5
0 472 149 0 436 622 470 0 +-.007620000000000004915 .03048000000000003277 -.00380
9999999999999181 0 1 0 0 0 1 14 368 67 630 ?419 217 562 5 629 +0 0 419 217 23 50
 627 2 0 217 519 629 0 +-5421010862427521843e-36 .04572000000000003277 -.0038099
99999999999181 0 0 -1 -1 0 0 50 519 330 0 419 516 627 0 +-.00581250726587635712
 .03730625000000003277 -.01016 1 0 0 0 0 -1 81 1 630 1840 453 368 0 0 624 526 63
1 15 562 1132 0 560 368 632 15 632 952 0 633 368 28 17 633 0 632 633 633 0 579 5
77 0 0 -17 579 0 634 579 579 0 633 577 0 0 +15 634 984 0 579 537 0 80 255 1 453
 0 635 8001 0 0 0 0 3 5 0 0 0 FFFFTFTFFFFFFF2 81 1 624 1839 453 217 0 0 621 630
 636 81 1 526 1841 453 419 0 0 630 521 637 83 255 3 631 .9882352941176471552 .73
72549019607843635 .5176470588235293491 83 3 637 .9882352941176471552 .7372549019
607843635 .5176470588235293491 83 3 636 .9882352941176471552 .737254901960784363
5 .5176470588235293491 79 255 15 635 SDL/TYSA_COLOUR81 1 623 1837 453 436 0 0 63
8 621 639 14 389 135 638 ?436 428 388 5 470 -428 428 436 428 23 15 628 716 0 640
 436 433 17 640 0 628 640 640 0 507 380 0 0 -17 507 0 485 507 507 0 640 380 0 0
 +15 485 750 0 507 480 641 15 641 751 0 642 480 0 17 642 0 641 642 642 0 295 293
 0 0 -17 295 0 525 295 295 0 642 293 0 0 +81 1 638 1836 453 389 0 0 517 623 643
 81 1 517 1835 453 428 0 0 515 638 644 83 3 643 .9882352941176471552 .7372549019
607843635 .5176470588235293491 83 3 644 .9882352941176471552 .737254901960784363
5 .5176470588235293491 83 3 639 .9882352941176471552 .7372549019607843635 .51764
70588235293491 15 626 1141 0 557 217 645 17 557 0 626 557 557 0 555 558 0 0 +15
 645 960 0 582 217 213 17 582 0 645 582 582 0 646 580 0 0 +17 646 0 542 646 646
 0 582 580 0 0 -15 542 983 0 646 537 634 83 3 625 .9882352941176471552 .73725490
19607843635 .5176470588235293491 81 1 455 1860 453 450 0 0 449 601 647 81 1 600
 1862 453 383 0 0 601 594 648 83 3 603 .9882352941176471552 .7372549019607843635
 .5176470588235293491 81 1 594 1863 453 491 0 0 600 593 649 83 3 648 .9882352941
176471552 .7372549019607843635 .5176470588235293491 83 3 649 .988235294117647155
2 .7372549019607843635 .5176470588235293491 83 3 647 .9882352941176471552 .73725
49019607843635 .5176470588235293491 81 1 595 1865 453 19 0 0 593 0 650 83 3 650
 .9882352941176471552 .7372549019607843635 .5176470588235293491 83 3 596 .988235
2941176471552 .7372549019607843635 .5176470588235293491 17 85 0 213 586 492 83 4
95 302 0 585 +81 1 550 1856 453 548 0 0 547 552 651 81 1 454 1858 453 451 0 0 55
2 449 652 83 3 554 .9882352941176471552 .7372549019607843635 .517647058823529349
1 83 3 652 .9882352941176471552 .7372549019607843635 .5176470588235293491 81 1 5
47 1855 453 443 0 0 544 550 653 83 3 651 .9882352941176471552 .73725490196078436
35 .5176470588235293491 81 1 544 1854 453 541 0 0 540 547 654 83 3 653 .98823529
41176471552 .7372549019607843635 .5176470588235293491 81 1 540 1853 453 537 0 0
 536 544 655 83 3 654 .9882352941176471552 .7372549019607843635 .517647058823529
3491 81 1 536 1852 453 534 0 0 533 540 656 83 3 655 .9882352941176471552 .737254
9019607843635 .5176470588235293491 81 1 533 1851 453 497 0 0 531 536 657 83 3 65
6 .9882352941176471552 .7372549019607843635 .5176470588235293491 81 1 531 1850 4
53 376 0 0 511 533 658 83 3 657 .9882352941176471552 .7372549019607843635 .51764
70588235293491 81 1 511 1849 453 484 0 0 482 531 659 83 3 658 .98823529411764715
52 .7372549019607843635 .5176470588235293491 81 1 482 1848 453 480 0 0 479 511 6
60 83 3 659 .9882352941176471552 .7372549019607843635 .5176470588235293491 83 3
 660 .9882352941176471552 .7372549019607843635 .5176470588235293491 81 1 528 184
5 453 477 0 0 522 475 661 15 423 483 0 140 477 0 17 140 0 423 191 182 138 402 22
2 0 399 -17 191 0 423 188 140 189 399 397 0 420 -17 182 0 423 140 188 173 407 40
0 0 402 -17 407 0 415 162 412 186 182 400 0 417 +81 1 522 1844 453 201 0 0 520 5
28 662 81 1 475 1846 453 473 0 0 528 479 663 83 3 661 .9882352941176471552 .7372
549019607843635 .5176470588235293491 83 3 663 .9882352941176471552 .737254901960
7843635 .5176470588235293491 83 3 662 .9882352941176471552 .7372549019607843635
 .5176470588235293491 83 3 527 .9882352941176471552 .7372549019607843635 .517647
0588235293491 83 3 523 .9882352941176471552 .7372549019607843635 .51764705882352
93491 81 1 466 1833 453 416 0 0 463 515 664 83 3 518 .9882352941176471552 .73725
49019607843635 .5176470588235293491 83 3 664 .9882352941176471552 .7372549019607
843635 .5176470588235293491 83 3 483 .9882352941176471552 .7372549019607843635 .
5176470588235293491 83 3 467 .9882352941176471552 .7372549019607843635 .51764705
88235293491 83 3 456 .9882352941176471552 .7372549019607843635 .5176470588235293
491 16 394 389 0 ?146 396 237 408 396 396 1 17 371 0 28 364 146 152 266 264 0 0
 -19 18 155 0 1 0 9 5 S74 4 CI16 index_map_offset0 0 1 dCCZ20 16 2 0 0 2 595 0 0
 0 0 0 0 0 0 0 0 0 0 0 0 0 0 0 0 80 3 12 665 666 9000 0 1 0 0 1 1 1 1 0 FFTFFFFF
FFFFFF1 1 1 82 255 1 13 646 82 1 14 2390 82 6 15 1075 1082 1032 1063 1091 1099 7
9 13 666 TempAxisFaces1 0 
